<svg width="47" height="48" viewBox="0 0 47 48" fill="none" xmlns="http://www.w3.org/2000/svg">
<path d="M39.7387 1.31614C28.8167 0.569098 17.8564 0.569098 6.9344 1.31614C5.30695 1.43391 3.77633 2.13376 2.6226 3.28761C1.46888 4.44147 0.769224 5.97218 0.651651 7.59965C-0.0961232 18.5216 -0.0961232 29.4819 0.651651 40.4039C0.769246 42.0315 1.46901 43.5623 2.62289 44.7162C3.77676 45.87 5.30757 46.5698 6.93515 46.6874C17.8568 47.437 28.817 47.437 39.7387 46.6874C41.3663 46.57 42.8972 45.8702 44.0511 44.7163C45.205 43.5624 45.9047 42.0315 46.0221 40.4039C46.7699 29.4822 46.7699 18.5221 46.0221 7.60039C45.9049 5.97262 45.2052 4.44155 44.0513 3.28749C42.8974 2.13343 41.3664 1.43361 39.7387 1.31614Z" fill="url(#paint0_linear_181673_5979)"/>
<path d="M34.062 16.2868L24.4252 10.7923C24.0932 10.6008 23.7166 10.5 23.3332 10.5C22.9499 10.5 22.5733 10.6008 22.2412 10.7923L12.6037 16.2868C12.1946 16.53 11.86 16.8809 11.6366 17.3012C11.4131 17.7215 11.3092 18.195 11.3362 18.6703C11.7142 26.3465 15.7125 33.2638 21.7695 36.7228L22.962 37.4023C23.0752 37.4666 23.2031 37.5004 23.3332 37.5004C23.4634 37.5004 23.5913 37.4666 23.7045 37.4023L24.8962 36.722C28.1363 34.8295 30.7853 32.0719 32.5462 28.7585C34.2137 25.645 35.1649 22.1983 35.3302 18.6703C35.3571 18.195 35.2532 17.7216 35.0297 17.3013C34.8062 16.8811 34.471 16.5302 34.062 16.2868ZM27.6832 21.4498L23.1832 27.4498C23.1178 27.5344 23.0352 27.6042 22.9409 27.6547C22.8467 27.7052 22.7428 27.7352 22.6361 27.7428C22.5294 27.7504 22.4223 27.7353 22.3218 27.6987C22.2213 27.662 22.1297 27.6045 22.053 27.53L19.053 24.53C18.9164 24.3886 18.8408 24.1991 18.8425 24.0025C18.8442 23.8058 18.9231 23.6177 19.0621 23.4786C19.2012 23.3396 19.3893 23.2607 19.5859 23.259C19.7826 23.2573 19.972 23.3329 20.1135 23.4695L22.5022 25.8583L26.4832 20.5498C26.5423 20.471 26.6164 20.4046 26.7011 20.3544C26.7859 20.3042 26.8797 20.2712 26.9772 20.2573C27.0747 20.2434 27.174 20.2488 27.2694 20.2732C27.3648 20.2977 27.4544 20.3407 27.5332 20.3998C27.612 20.4588 27.6784 20.5329 27.7286 20.6176C27.7788 20.7024 27.8118 20.7962 27.8257 20.8937C27.8396 20.9912 27.8342 21.0905 27.8098 21.1859C27.7853 21.2813 27.7423 21.371 27.6832 21.4498Z" fill="url(#paint1_linear_181673_5979)"/>
<defs>
<linearGradient id="paint0_linear_181673_5979" x1="23.3369" y1="0.943394" x2="23.3369" y2="47.0376" gradientUnits="userSpaceOnUse">
<stop stop-color="#E8FFF2"/>
<stop offset="1" stop-color="#C8FFE9"/>
</linearGradient>
<linearGradient id="paint1_linear_181673_5979" x1="23.3332" y1="9.3665" x2="23.3332" y2="37.7308" gradientUnits="userSpaceOnUse">
<stop stop-color="#18C19F"/>
<stop offset="1" stop-color="#8BF3AF"/>
</linearGradient>
</defs>
</svg>
