<svg width="16" height="16" viewBox="0 0 16 16" fill="none" xmlns="http://www.w3.org/2000/svg">
<path d="M2.42566 1.99316C2.76424 1.7878 3.30034 1.74307 3.99304 2.08203V2.08105L6.94519 3.54102L6.94714 3.54199C7.16561 3.64899 7.39291 3.86274 7.56726 4.13867C7.74185 4.415 7.83277 4.70657 7.83289 4.93945V14C7.83283 14.0904 7.75728 14.1669 7.66687 14.167H2.7196C2.21323 14.1668 1.81335 13.7606 1.81335 13.2861V3.39355L1.82605 3.12598C1.88341 2.53409 2.13172 2.17158 2.42566 1.99316ZM3.66687 7.66699C3.11739 7.66699 2.66687 8.11752 2.66687 8.66699C2.6671 9.21628 3.11753 9.66699 3.66687 9.66699H5.98035C6.54052 9.66682 6.98012 9.21182 6.98035 8.66699C6.98035 8.11763 6.52967 7.66717 5.98035 7.66699H3.66687ZM3.66687 5C3.11739 5 2.66687 5.45052 2.66687 6C2.66692 6.54943 3.11743 7 3.66687 7H5.98035C6.54064 6.99982 6.9803 6.54497 6.98035 6C6.98035 5.45063 6.52967 5.00018 5.98035 5H3.66687Z" fill="#0E883D" stroke="#0E883D"/>
<path d="M14.6666 12.0269V13.0002C14.6666 13.9202 13.92 14.6669 13 14.6669H9.97998C9.61998 14.6669 9.33331 14.3802 9.33331 14.0202V12.5802C10.0466 12.6669 10.8 12.4602 11.34 12.0269C11.7933 12.3935 12.3733 12.6135 13.0066 12.6135C13.6266 12.6135 14.2066 12.3935 14.6666 12.0269Z" fill="#0E883D"/>
<path d="M14.6666 10.0335V10.0402C14.6133 10.9135 13.9 11.6135 13.0066 11.6135C12.08 11.6135 11.34 10.8602 11.34 9.94684C11.34 10.9668 10.4 11.7868 9.33331 11.5802V8.00018C9.33331 7.57351 9.72665 7.25351 10.1466 7.34684L11.34 7.61351L11.66 7.68684L13.02 7.99351C13.3466 8.06018 13.6466 8.17351 13.9066 8.34018C13.9066 8.34684 13.9133 8.34684 13.9133 8.34684C13.98 8.39351 14.0466 8.44684 14.1066 8.50684C14.4133 8.81351 14.6133 9.26018 14.66 9.91351C14.66 9.95351 14.6666 9.99351 14.6666 10.0335Z" fill="#0E883D"/>
</svg>
