<svg width="46" height="46" viewBox="0 0 46 46" fill="none" xmlns="http://www.w3.org/2000/svg">
<path d="M45.406 9.71775C45.2724 7.34142 44.2682 5.09754 42.5852 3.41456C40.9022 1.73158 38.6584 0.727401 36.282 0.593753C27.4344 0.093749 18.5656 0.093749 9.71801 0.593753C7.34175 0.727616 5.098 1.73187 3.41506 3.4148C1.73212 5.09774 0.727874 7.34149 0.594011 9.71775C0.0939885 18.5657 0.0939885 27.4348 0.594011 36.2828C0.727874 38.659 1.73212 40.9028 3.41506 42.5857C5.098 44.2686 7.34175 45.2729 9.71801 45.4067C18.5656 45.9077 27.4344 45.9077 36.282 45.4067C38.6584 45.2731 40.9022 44.2689 42.5852 42.5859C44.2682 40.903 45.2724 38.6591 45.406 36.2828C45.906 27.4348 45.906 18.5657 45.406 9.71775Z" fill="#F6FFED"/>
<path d="M21 23.752C25.2802 23.752 28.75 20.2822 28.75 16.002C28.75 11.7217 25.2802 8.25195 21 8.25195C16.7198 8.25195 13.25 11.7217 13.25 16.002C13.25 20.2822 16.7198 23.752 21 23.752Z" fill="#3B6834"/>
<path d="M23.75 32.0004C23.7499 33.8932 24.4932 35.7104 25.82 37.0604C24.2602 37.5128 22.6441 37.7417 21.02 37.7404C17.1054 37.7109 13.3017 36.436 10.16 34.1004C9.87682 33.8891 9.64703 33.6144 9.48902 33.2984C9.331 32.9824 9.24915 32.6337 9.25001 32.2804C9.29358 30.3645 9.86578 28.4979 10.9034 26.8868C11.941 25.2756 13.4037 23.9826 15.13 23.1504C16.7832 24.5066 18.8549 25.2486 20.9932 25.2504C23.1315 25.2522 25.2045 24.5137 26.86 23.1604C27.6829 23.5228 28.4478 24.0047 29.13 24.5904C29.2411 24.6786 29.3187 24.8021 29.35 24.9404C27.7622 25.3227 26.3481 26.2257 25.3332 27.5052C24.3182 28.7847 23.7609 30.3672 23.75 32.0004Z" fill="#3B6834"/>
<path d="M31 26.25C29.475 26.25 28.0125 26.8558 26.9341 27.9341C25.8558 29.0125 25.25 30.475 25.25 32C25.25 33.525 25.8558 34.9875 26.9341 36.0659C28.0125 37.1442 29.475 37.75 31 37.75C32.525 37.75 33.9875 37.1442 35.0659 36.0659C36.1442 34.9875 36.75 33.525 36.75 32C36.75 30.475 36.1442 29.0125 35.0659 27.9341C33.9875 26.8558 32.525 26.25 31 26.25ZM34.53 30.53L30.53 34.53C30.3894 34.6704 30.1988 34.7493 30 34.7493C29.8012 34.7493 29.6106 34.6704 29.47 34.53L27.47 32.53C27.3375 32.3878 27.2654 32.1998 27.2688 32.0055C27.2723 31.8112 27.351 31.6258 27.4884 31.4884C27.6258 31.351 27.8112 31.2723 28.0055 31.2688C28.1998 31.2654 28.3878 31.3375 28.53 31.47L30 32.94L33.47 29.47C33.6122 29.3375 33.8002 29.2654 33.9945 29.2688C34.1888 29.2723 34.3742 29.351 34.5116 29.4884C34.649 29.6258 34.7277 29.8112 34.7312 30.0055C34.7346 30.1998 34.6625 30.3878 34.53 30.53Z" fill="#0E883D"/>
</svg>
