<svg width="49" height="48" viewBox="0 0 49 48" fill="none" xmlns="http://www.w3.org/2000/svg">
<path d="M48.2714 10.0073C48.1306 7.50379 47.0727 5.13985 45.2997 3.36681C43.5267 1.59378 41.1627 0.535865 38.6592 0.395066C29.3746 -0.131689 19.9584 -0.131689 10.6738 0.395066C8.17038 0.536092 5.80656 1.59408 4.03357 3.36707C2.26058 5.14006 1.2026 7.50387 1.06157 10.0073C0.534815 19.2919 0.534815 28.7071 1.06157 37.9927C1.2026 40.4961 2.26058 42.8599 4.03357 44.6329C5.80656 46.4059 8.17038 47.4639 10.6738 47.6049C19.9826 48.1338 29.3525 48.1327 38.6592 47.6049C41.1627 47.4641 43.5267 46.4062 45.2997 44.6332C47.0727 42.8602 48.1306 40.4962 48.2714 37.9927C48.7982 28.7081 48.7982 19.2929 48.2714 10.0073Z" fill="#F6FFED"/>
<path d="M34.8358 23.2376H35.0514C34.8899 21.0069 34.0112 18.8883 32.5467 17.1979L32.3972 17.3485C32.2516 17.4868 32.0585 17.564 31.8577 17.564C31.6569 17.564 31.4637 17.4868 31.3182 17.3485C31.1754 17.2054 31.0951 17.0116 31.0951 16.8095C31.0951 16.6074 31.1754 16.4135 31.3182 16.2705L31.4687 16.12C29.7784 14.6554 27.6597 13.7768 25.429 13.6152V13.8308C25.429 14.0331 25.3487 14.2271 25.2057 14.3701C25.0626 14.5132 24.8686 14.5935 24.6663 14.5935C24.4641 14.5935 24.2701 14.5132 24.127 14.3701C23.984 14.2271 23.9036 14.0331 23.9036 13.8308V13.6152C21.6729 13.7768 19.5543 14.6554 17.864 16.12L18.0145 16.2695C18.1573 16.4125 18.2375 16.6063 18.2375 16.8085C18.2375 17.0106 18.1573 17.2044 18.0145 17.3474C17.8702 17.4877 17.6769 17.5663 17.4757 17.5665C17.2745 17.5667 17.081 17.4885 16.9365 17.3485L16.786 17.1979C15.3214 18.8883 14.4428 21.0069 14.2812 23.2376H14.4968C14.6991 23.2376 14.8931 23.318 15.0362 23.461C15.1792 23.604 15.2596 23.798 15.2596 24.0003C15.2596 24.2026 15.1792 24.3966 15.0362 24.5396C14.8931 24.6827 14.6991 24.763 14.4968 24.763H14.2812C14.4428 26.9937 15.3214 29.1124 16.786 30.8027L16.9355 30.6522C17.0058 30.5793 17.0899 30.5212 17.183 30.4811C17.276 30.4411 17.3761 30.42 17.4774 30.4191C17.5786 30.4182 17.6791 30.4374 17.7728 30.4757C17.8666 30.514 17.9518 30.5706 18.0234 30.6422C18.0951 30.7138 18.1517 30.7989 18.1901 30.8926C18.2285 30.9864 18.2479 31.0868 18.247 31.1881C18.2462 31.2893 18.2252 31.3894 18.1853 31.4825C18.1453 31.5756 18.0873 31.6598 18.0145 31.7302L17.864 31.8807C19.5543 33.3452 21.6729 34.2239 23.9036 34.3854V34.1698C23.9036 33.9675 23.984 33.7735 24.127 33.6305C24.2701 33.4875 24.4641 33.4071 24.6663 33.4071C24.8686 33.4071 25.0626 33.4875 25.2057 33.6305C25.3487 33.7735 25.429 33.9675 25.429 34.1698V34.3854C27.6597 34.2239 29.7784 33.3452 31.4687 31.8807L31.3182 31.7312C31.2453 31.6608 31.1872 31.5767 31.1472 31.4837C31.1071 31.3906 31.0861 31.2906 31.0851 31.1893C31.0842 31.088 31.1035 30.9876 31.1418 30.8938C31.1801 30.8001 31.2367 30.7149 31.3082 30.6432C31.3798 30.5716 31.4649 30.5149 31.5587 30.4765C31.6524 30.4381 31.7528 30.4188 31.8541 30.4196C31.9553 30.4205 32.0554 30.4415 32.1485 30.4814C32.2416 30.5213 32.3258 30.5794 32.3962 30.6522L32.5467 30.8027C34.0112 29.1124 34.8899 26.9937 35.0514 24.763H34.8358C34.6335 24.763 34.4395 24.6827 34.2965 24.5396C34.1535 24.3966 34.0731 24.2026 34.0731 24.0003C34.0731 23.798 34.1535 23.604 34.2965 23.461C34.4395 23.318 34.6335 23.2376 34.8358 23.2376ZM29.2731 28.6071C29.1276 28.7452 28.9347 28.8221 28.7341 28.8221C28.5336 28.8221 28.3406 28.7452 28.1951 28.6071L26.0199 26.4329C25.6075 26.6686 25.1413 26.794 24.6663 26.7969C23.9249 26.7961 23.214 26.5012 22.6897 25.9769C22.1654 25.4526 21.8705 24.7418 21.8697 24.0003C21.8697 22.724 22.7341 21.6573 23.9036 21.3227V16.8817C23.9036 16.6794 23.984 16.4854 24.127 16.3424C24.2701 16.1993 24.4641 16.119 24.6663 16.119C24.8686 16.119 25.0626 16.1993 25.2057 16.3424C25.3487 16.4854 25.429 16.6794 25.429 16.8817V21.3227C26.5985 21.6573 27.4629 22.724 27.4629 24.0003C27.4629 24.4935 27.3236 24.9512 27.0989 25.3539L29.2731 27.5291C29.4159 27.6721 29.4962 27.866 29.4962 28.0681C29.4962 28.2702 29.4159 28.4641 29.2731 28.6071Z" fill="#52C41A"/>
<path d="M24.6667 25.2709C25.3688 25.2709 25.9379 24.7018 25.9379 23.9997C25.9379 23.2976 25.3688 22.7285 24.6667 22.7285C23.9646 22.7285 23.3955 23.2976 23.3955 23.9997C23.3955 24.7018 23.9646 25.2709 24.6667 25.2709Z" fill="#52C41A"/>
<path d="M24.6665 9C16.3957 9 9.6665 15.7292 9.6665 24C9.6665 32.2708 16.3957 39 24.6665 39C32.9374 39 39.6665 32.2708 39.6665 24C39.6665 15.7292 32.9374 9 24.6665 9ZM24.6665 35.9492C18.0777 35.9492 12.7174 30.5888 12.7174 24C12.7174 17.4112 18.0777 12.0508 24.6665 12.0508C31.2553 12.0508 36.6157 17.4112 36.6157 24C36.6157 30.5888 31.2553 35.9492 24.6665 35.9492Z" fill="#52C41A"/>
</svg>
