<svg width="16" height="16" viewBox="0 0 16 16" fill="none" xmlns="http://www.w3.org/2000/svg">
<path d="M13.6846 1.00879C13.7033 1.00879 13.722 1.01237 13.7393 1.01953C13.7564 1.02664 13.772 1.03674 13.7852 1.0498L14.5469 1.8125C14.56 1.82562 14.57 1.84129 14.5771 1.8584L14.5889 1.91309C14.5888 1.9318 14.5843 1.95048 14.5771 1.96777C14.57 1.98491 14.56 2.00053 14.5469 2.01367L1.83008 14.7305C1.80338 14.7571 1.76721 14.7714 1.72949 14.7715C1.69181 14.7715 1.65565 14.757 1.62891 14.7305L0.866211 13.9678L0.834961 13.9219C0.827831 13.9047 0.824227 13.8861 0.824219 13.8672C0.824219 13.8293 0.839461 13.7934 0.866211 13.7666L2.75586 11.877L2.40625 11.542C2.29175 11.426 2.17953 11.3055 2.06934 11.1807C1.95912 11.0558 1.85103 10.9266 1.74512 10.793C1.5334 10.5258 1.33026 10.241 1.13574 9.93848C0.941276 9.63608 0.755398 9.31615 0.578125 8.97852L0.318359 8.45898C0.301356 8.42298 0.286304 8.38612 0.273438 8.34863C0.247794 8.27392 0.230411 8.19667 0.22168 8.11816C0.217292 8.07871 0.21582 8.0389 0.21582 7.99902C0.215843 7.8403 0.25064 7.68359 0.318359 7.54004C0.371119 7.42838 0.425032 7.31813 0.479492 7.20996C0.53397 7.10176 0.589329 6.99534 0.645508 6.89062C1.43222 5.42426 2.38557 4.29959 3.50586 3.51758C3.66577 3.40596 3.82938 3.30178 3.99609 3.2041C4.16298 3.10633 4.33314 3.01545 4.50684 2.93164C5.02766 2.68035 5.57907 2.49189 6.16113 2.36621C6.25827 2.34524 6.35624 2.32607 6.45508 2.30859C6.94879 2.2213 7.46373 2.17774 8 2.17773C8.16808 2.17773 8.33414 2.18182 8.49805 2.19043C8.98913 2.21622 9.46144 2.28073 9.91504 2.38379C10.0666 2.41822 10.2159 2.45695 10.3633 2.5C10.6563 2.58562 10.9413 2.68788 11.2178 2.80762C11.2187 2.80802 11.2198 2.80819 11.2207 2.80859L11.6309 3.00195L13.584 1.0498C13.5971 1.03673 13.6128 1.02667 13.6299 1.01953C13.6472 1.01236 13.6659 1.00881 13.6846 1.00879ZM13.4404 4.30273C13.8735 4.72002 14.2769 5.19807 14.6504 5.7373C15.0239 6.27659 15.3678 6.87683 15.6816 7.53809C15.7325 7.64586 15.7653 7.76099 15.7783 7.87891L15.7852 7.99707L15.7783 8.11621C15.7652 8.23408 15.7325 8.3493 15.6816 8.45703C14.9954 9.90931 14.1653 11.0665 13.1914 11.9287C12.9666 12.1277 12.7342 12.3109 12.4941 12.4785C11.2139 13.3721 9.71591 13.8193 8 13.8193C7.84524 13.8193 7.69225 13.8159 7.54102 13.8086C6.48272 13.7575 5.51117 13.5268 4.62598 13.1182L5.60938 12.1348C6.06481 12.3013 6.54689 12.4161 7.05566 12.4785C7.36082 12.516 7.67565 12.5342 8 12.5342C8.08991 12.5342 8.17917 12.5331 8.26758 12.5303C8.53339 12.5217 8.79251 12.5003 9.04492 12.4658C9.21319 12.4428 9.3786 12.4145 9.54102 12.3799C9.62217 12.3626 9.70252 12.3434 9.78223 12.3232C10.4998 12.1414 11.159 11.8416 11.7627 11.4199C12.7688 10.7172 13.6212 9.67632 14.3359 8.28223L14.4775 7.99805L14.2637 7.57617C14.0462 7.16481 13.817 6.78475 13.5742 6.43652C13.4934 6.32067 13.4108 6.20855 13.3271 6.09961C13.0756 5.77205 12.8112 5.47561 12.5332 5.20996L13.4404 4.30273ZM8 3.46191C6.55976 3.46193 5.31255 3.82754 4.23926 4.57715C3.90388 4.81138 3.58514 5.0827 3.2832 5.39258C3.22291 5.45446 3.16348 5.51808 3.10449 5.58301C2.51351 6.23346 1.98742 7.03688 1.52246 7.99805L1.75586 8.45703C2.23074 9.34782 2.7642 10.0884 3.36133 10.6826C3.46068 10.7815 3.56216 10.876 3.66504 10.9668L5.15527 9.47754L5.15625 9.47656C4.83914 8.88217 4.72121 8.20152 4.82031 7.53516C4.84507 7.36881 4.88318 7.20564 4.93359 7.04688C4.98418 6.88755 5.04709 6.73281 5.12207 6.58398C5.27164 6.28711 5.46799 6.01345 5.70605 5.77539C6.18242 5.29909 6.79951 4.98876 7.46582 4.88965C8.13179 4.79061 8.81211 4.90793 9.40625 5.22461L9.4082 5.22559L10.6631 3.96973L10.6621 3.96875H10.6631C10.0605 3.71387 9.41155 3.55608 8.71387 3.49316C8.48142 3.4722 8.24339 3.46191 8 3.46191ZM7.61035 6.02344C7.29944 6.07384 7.00443 6.19714 6.75 6.38281C6.5593 6.52201 6.39501 6.6933 6.26465 6.88867C6.22118 6.95382 6.18122 7.02163 6.14551 7.0918C6.0027 7.37245 5.92808 7.68316 5.92773 7.99805C5.92768 8.04982 5.92965 8.10182 5.93359 8.15332C5.94151 8.25661 5.95765 8.35914 5.98145 8.45996L6.02344 8.60938L8.54004 6.09375L8.53809 6.0918C8.46358 6.06808 8.38789 6.04897 8.31152 6.03418C8.15786 6.00441 8.0011 5.99328 7.84473 6L7.61035 6.02344Z" fill="#8C8C8C" stroke="#8C8C8C" stroke-width="0.00111607"/>
<path d="M7.92898 10.0012C7.8672 10.0012 7.80631 9.99839 7.74595 9.99286L6.80273 10.9361C7.37004 11.1533 7.98813 11.2016 8.58229 11.0751C9.17645 10.9485 9.72123 10.6526 10.1508 10.2231C10.5803 9.7935 10.8763 9.24871 11.0028 8.65455C11.1293 8.0604 11.0811 7.4423 10.8638 6.875L9.92059 7.81821C9.92613 7.87857 9.92898 7.93946 9.92898 8.00125C9.92912 8.26393 9.87749 8.52407 9.77703 8.76678C9.67657 9.0095 9.52926 9.23003 9.34351 9.41578C9.15777 9.60152 8.93723 9.74884 8.69452 9.8493C8.4518 9.94976 8.19167 10.0014 7.92898 10.0012Z" fill="#8C8C8C"/>
</svg>
