<svg width="112" height="50" viewBox="0 0 112 50" fill="none" xmlns="http://www.w3.org/2000/svg">
<path d="M14 3.98926C8.48867 3.98926 4 8.47792 4 13.9893V35.9893C4 41.5006 8.48867 45.9893 14 45.9893H36C41.5113 45.9893 46 41.5006 46 35.9893V13.9893C46 8.47792 41.5113 3.98926 36 3.98926H14ZM14 5.98926H36C40.4307 5.98926 44 9.55859 44 13.9893V35.9893C44 40.4199 40.4307 43.9893 36 43.9893H14C9.56933 43.9893 6 40.4199 6 35.9893V13.9893C6 9.55859 9.56933 5.98926 14 5.98926ZM22.5723 11.8916C22.1879 11.867 21.791 11.9519 21.4336 12.1611C20.4806 12.7201 20.1617 13.9464 20.7207 14.8994L22.5312 17.9893L16.666 27.999H12C10.896 27.999 10 28.895 10 29.999C10 31.103 10.896 31.999 12 31.999H27.4121C27.5691 31.236 27.4732 30.4086 27.0332 29.6436L27.0293 29.6396C26.6423 28.9656 26.1055 28.415 25.4805 27.999H21.3027L28.9785 14.8975C29.5365 13.9445 29.2167 12.7191 28.2637 12.1611C27.3097 11.6031 26.0853 11.923 25.5273 12.876L24.8496 14.0322L24.1719 12.876C23.8225 12.2804 23.2129 11.9326 22.5723 11.8916ZM28.3105 19.9404L27.4844 21.3135C26.5724 22.8295 26.543 24.7059 27.377 26.2549L33.6738 37.001C34.0458 37.637 34.7134 37.9893 35.4004 37.9893C35.7434 37.9893 36.0922 37.9018 36.4102 37.7158C37.3632 37.1578 37.682 35.9325 37.123 34.9795L35.377 31.999H38C39.104 31.999 40 31.103 40 29.999C40 28.895 39.104 27.999 38 27.999H33.0332L28.3105 19.9404ZM14.625 34.0029C14.068 33.9869 13.5267 34.0734 13.0117 34.2354L12.5664 34.9932C12.0074 35.9452 12.3282 37.1715 13.2812 37.7295C13.5992 37.9165 13.9461 38.0049 14.2891 38.0049C14.9761 38.0049 15.6446 37.6496 16.0176 37.0146L17.0938 35.1787C16.5087 34.4957 15.6539 34.0329 14.6309 34.0029H14.625Z" fill="white" fill-opacity="0.7"/>
<rect x="71" y="4.99902" width="40" height="40" rx="9" stroke="white" stroke-opacity="0.7" stroke-width="2"/>
<path d="M79.1889 10.3135C79.1815 10.316 79.1765 10.3309 79.169 10.3334C79.1515 10.3359 79.1266 10.3284 79.1091 10.3334C78.9743 10.3484 78.8495 10.4033 78.7497 10.4932C78.3203 10.7278 78.0508 11.2095 78.0508 11.7312V38.4282C78.0508 38.8251 78.2255 39.2419 78.55 39.4865C78.6997 39.6537 78.9269 39.7286 79.149 39.6862C79.441 39.7012 79.748 39.6363 80.0076 39.4865C80.5493 39.172 91.609 32.7773 91.609 32.7773L97.3797 29.4427C97.3922 29.4377 97.4071 29.4302 97.4196 29.4227L97.4995 29.3828C97.4995 29.3828 97.5769 29.3428 97.5794 29.3428C97.5868 29.3354 97.5918 29.3304 97.5993 29.3229C97.7715 29.223 102.499 26.5024 103.15 26.128C103.6 25.8684 103.957 25.4466 103.949 24.9299C103.942 24.4133 103.577 24.0114 103.17 23.7918C102.946 23.672 101.488 22.8383 100.135 22.0546C98.7824 21.2708 97.4995 20.517 97.4995 20.517L91.609 17.1225C91.609 17.1225 80.8987 10.9375 80.2672 10.573C80.0451 10.4457 79.793 10.3434 79.5484 10.3135C79.4261 10.2985 79.3088 10.2935 79.1889 10.3135ZM79.3287 12.0307L92.3478 24.9499L79.3287 37.8691V12.0307ZM82.3638 13.2487C85.6136 15.1257 90.97 18.2207 90.97 18.2207L96.1217 21.196L93.2463 24.0514L82.3638 13.2487ZM97.2599 21.8549C97.5669 22.0346 98.3481 22.4889 99.4963 23.1528C100.849 23.9365 102.237 24.7303 102.571 24.91C102.604 24.9274 102.594 24.9374 102.611 24.9499C102.586 24.9674 102.579 24.9724 102.511 25.0098C101.897 25.3642 97.9163 27.6755 97.2798 28.0449L94.1449 24.9499L97.2599 21.8549ZM93.2463 25.8285L96.1417 28.7039L90.97 31.6791C90.97 31.6791 85.7534 34.6892 82.3838 36.6311L93.2463 25.8285Z" fill="white" fill-opacity="0.7"/>
</svg>
