<svg width="24" height="24" viewBox="0 0 24 24" fill="none" xmlns="http://www.w3.org/2000/svg">
<path d="M9 22.0068H15C20 22.0068 22 20.0068 22 15.0068V9.00684C22 4.00684 20 2.00684 15 2.00684H9C4 2.00684 2 4.00684 2 9.00684V15.0068C2 20.0068 4 22.0068 9 22.0068Z" stroke="#8C8C8C" stroke-width="1.5" stroke-linecap="round" stroke-linejoin="round"/>
<path d="M9 10.0068C10.1046 10.0068 11 9.11141 11 8.00684C11 6.90227 10.1046 6.00684 9 6.00684C7.89543 6.00684 7 6.90227 7 8.00684C7 9.11141 7.89543 10.0068 9 10.0068Z" stroke="#8C8C8C" stroke-width="1.5" stroke-linecap="round" stroke-linejoin="round"/>
<path d="M2.66992 18.9569L7.59992 15.6469C8.38992 15.1169 9.52992 15.1769 10.2399 15.7869L10.5699 16.0769C11.3499 16.7469 12.6099 16.7469 13.3899 16.0769L17.5499 12.5069C18.3299 11.8369 19.5899 11.8369 20.3699 12.5069L21.9999 13.9069" stroke="#8C8C8C" stroke-width="1.5" stroke-linecap="round" stroke-linejoin="round"/>
</svg>
