<svg width="25" height="24" viewBox="0 0 25 24" fill="none" xmlns="http://www.w3.org/2000/svg">
<path d="M4.51855 17.1123C5.30156 17.3087 6.09298 17.4712 6.87988 17.6104C7.02302 18.4011 7.18389 19.1913 7.37891 19.9746C6.23385 19.2401 5.2569 18.2604 4.51855 17.1123Z" fill="#0E883D" stroke="#0E883D"/>
<path d="M20.4873 17.1113C19.7455 18.2659 18.7569 19.2515 17.5967 19.9961C17.8066 19.2065 17.9902 18.4111 18.1328 17.6094C18.9238 17.4701 19.7089 17.3078 20.4873 17.1113Z" fill="#0E883D" stroke="#0E883D"/>
<path d="M21.52 7.70998C20.26 7.32998 18.99 7.01998 17.7 6.79998C17.49 5.50998 17.18 4.22998 16.79 2.97998C18.86 3.96998 20.53 5.63998 21.52 7.70998Z" fill="#0E883D"/>
<path d="M8.15047 3.09006C7.79047 4.31006 7.53047 5.55006 7.32047 6.81006C6.03047 7.01006 4.75047 7.33006 3.48047 7.71006C4.45047 5.70006 6.06047 4.05006 8.05047 3.06006C8.08047 3.06006 8.12047 3.09006 8.15047 3.09006Z" fill="#0E883D"/>
<path d="M15.9898 6.59C13.6698 6.33 11.3298 6.33 9.00977 6.59C9.25977 5.22 9.57977 3.85 10.0298 2.53C10.0498 2.45 10.0398 2.39 10.0498 2.31C10.8398 2.12 11.6498 2 12.4998 2C13.3398 2 14.1598 2.12 14.9398 2.31C14.9498 2.39 14.9498 2.45 14.9698 2.53C15.4198 3.86 15.7398 5.22 15.9898 6.59Z" fill="#0E883D"/>
<path d="M7.09 15.4898C5.71 15.2398 4.35 14.9198 3.03 14.4698C2.95 14.4498 2.89 14.4598 2.81 14.4498C2.62 13.6598 2.5 12.8498 2.5 11.9998C2.5 11.1598 2.62 10.3398 2.81 9.55977C2.89 9.54977 2.95 9.54977 3.03 9.52977C4.36 9.08977 5.71 8.75977 7.09 8.50977C6.84 10.8298 6.84 13.1698 7.09 15.4898Z" fill="#0E883D"/>
<path d="M22.5002 11.9998C22.5002 12.8498 22.3802 13.6598 22.1902 14.4498C22.1102 14.4598 22.0502 14.4498 21.9702 14.4698C20.6402 14.9098 19.2802 15.2398 17.9102 15.4898C18.1702 13.1698 18.1702 10.8298 17.9102 8.50977C19.2802 8.75977 20.6502 9.07977 21.9702 9.52977C22.0502 9.54977 22.1102 9.55977 22.1902 9.55977C22.3802 10.3498 22.5002 11.1598 22.5002 11.9998Z" fill="#0E883D"/>
<path d="M15.9898 17.4102C15.7398 18.7902 15.4198 20.1502 14.9698 21.4702C14.9498 21.5502 14.9498 21.6102 14.9398 21.6902C14.1598 21.8802 13.3398 22.0002 12.4998 22.0002C11.6498 22.0002 10.8398 21.8802 10.0498 21.6902C10.0398 21.6102 10.0498 21.5502 10.0298 21.4702C9.58977 20.1402 9.25977 18.7902 9.00977 17.4102C10.1698 17.5402 11.3298 17.6302 12.4998 17.6302C13.6698 17.6302 14.8398 17.5402 15.9898 17.4102Z" fill="#0E883D"/>
<path d="M16.2633 15.7633C13.7622 16.0789 11.2378 16.0789 8.73667 15.7633C8.42111 13.2622 8.42111 10.7378 8.73667 8.23667C11.2378 7.92111 13.7622 7.92111 16.2633 8.23667C16.5789 10.7378 16.5789 13.2622 16.2633 15.7633Z" fill="#0E883D"/>
</svg>
