<svg width="16" height="14" viewBox="0 0 16 14" fill="none" xmlns="http://www.w3.org/2000/svg">
<path d="M1.15588 13.0445C1.1186 13.0445 1.08096 13.0403 1.04368 13.0317C0.936505 13.0063 0.84103 12.9455 0.77268 12.8591C0.70433 12.7727 0.667096 12.6658 0.666992 12.5557C0.666992 8.11313 1.22897 4.41835 8.00033 4.25029V0.822327C8.00034 0.727276 8.02806 0.63429 8.08009 0.554747C8.13213 0.475205 8.20622 0.412556 8.2933 0.374466C8.38039 0.336377 8.47669 0.3245 8.57042 0.340288C8.66415 0.356076 8.75124 0.398845 8.82105 0.46336L15.1766 6.33003C15.2768 6.42206 15.3337 6.55247 15.3337 6.68899C15.3337 6.82552 15.2768 6.95593 15.1766 7.04808L8.82105 12.9148C8.75134 12.9795 8.66419 13.0224 8.57035 13.0382C8.47652 13.054 8.38011 13.042 8.29305 13.0036C8.20602 12.9654 8.13198 12.9028 8.08 12.8232C8.02802 12.7437 8.00033 12.6507 8.00033 12.5557V9.13918C3.35539 9.2504 2.49837 10.964 1.59319 12.7743C1.55261 12.8555 1.49019 12.9239 1.41294 12.9716C1.3357 13.0193 1.24668 13.0446 1.15588 13.0445ZM8.48921 8.15566C8.75945 8.15566 8.9781 8.37432 8.9781 8.64455V11.4389L14.1239 6.68899L8.9781 1.93907V4.73344C8.9781 5.00367 8.75945 5.22233 8.48921 5.22233C3.08846 5.22233 1.92551 7.3111 1.69684 10.6474C2.70945 9.28719 4.43535 8.15566 8.48921 8.15566Z" fill="#434343"/>
</svg>
