<svg width="44" height="46" viewBox="0 0 44 46" fill="none" xmlns="http://www.w3.org/2000/svg">
<path d="M7.59491 30.6763H1.06185C0.892635 30.6763 0.730352 30.7435 0.6107 30.8632C0.491048 30.9828 0.423828 31.1451 0.423828 31.3143V44.865C0.423828 45.0342 0.491048 45.1965 0.6107 45.3161C0.730352 45.4358 0.892635 45.503 1.06185 45.503H7.59482C7.76403 45.503 7.92631 45.4358 8.04597 45.3161C8.16562 45.1965 8.23284 45.0342 8.23284 44.865V31.3143C8.23286 31.2305 8.21638 31.1476 8.18433 31.0701C8.15228 30.9927 8.10529 30.9224 8.04605 30.8631C7.98681 30.8039 7.91648 30.7569 7.83907 30.7248C7.76166 30.6928 7.67869 30.6763 7.59491 30.6763ZM6.95689 44.2269H1.69987V31.9523H6.9568L6.95689 44.2269ZM19.3761 24.7809H12.8431C12.6739 24.7809 12.5116 24.8481 12.3919 24.9678C12.2723 25.0874 12.2051 25.2497 12.2051 25.4189V44.865C12.2051 45.0342 12.2723 45.1965 12.3919 45.3161C12.5116 45.4358 12.6739 45.503 12.8431 45.503H19.3761C19.5453 45.503 19.7076 45.4358 19.8272 45.3161C19.9469 45.1965 20.0141 45.0342 20.0141 44.865V25.4189C20.0141 25.2497 19.9469 25.0874 19.8272 24.9678C19.7076 24.8481 19.5453 24.7809 19.3761 24.7809ZM18.738 44.2269H13.4811V26.0569H18.738V44.2269ZM31.1571 18.8855H24.6242C24.455 18.8855 24.2927 18.9527 24.1731 19.0724C24.0534 19.192 23.9862 19.3543 23.9862 19.5235V44.865C23.9862 45.0342 24.0534 45.1965 24.1731 45.3161C24.2927 45.4358 24.455 45.503 24.6242 45.503H31.1572C31.3264 45.503 31.4887 45.4358 31.6083 45.3161C31.728 45.1965 31.7952 45.0342 31.7952 44.865V19.5235C31.7952 19.4397 31.7787 19.3567 31.7466 19.2793C31.7146 19.2019 31.6676 19.1316 31.6083 19.0723C31.5491 19.0131 31.4787 18.9661 31.4013 18.934C31.3239 18.902 31.2409 18.8855 31.1571 18.8855ZM30.5191 44.2269H25.2623V20.1615H30.5192V44.2269H30.5191ZM42.9384 12.9902H36.4055C36.2363 12.9902 36.074 13.0574 35.9543 13.177C35.8347 13.2967 35.7674 13.459 35.7674 13.6282V44.865C35.7674 45.0342 35.8347 45.1965 35.9543 45.3161C36.074 45.4358 36.2363 45.503 36.4055 45.503H42.9384C43.1076 45.503 43.2699 45.4358 43.3896 45.3161C43.5092 45.1965 43.5765 45.0342 43.5765 44.865V13.6282C43.5765 13.459 43.5092 13.2967 43.3896 13.177C43.2699 13.0574 43.1076 12.9902 42.9384 12.9902ZM42.3004 44.2269H37.0435V14.2662H42.3004V44.2269ZM35.7648 6.52747C35.7759 6.69632 35.7195 6.86268 35.608 6.98994C35.4964 7.11719 35.3389 7.19493 35.1701 7.20605C35.0012 7.21717 34.8349 7.16076 34.7076 7.04923C34.5804 6.9377 34.5026 6.78018 34.4915 6.61133L34.2603 3.1023C31.4588 7.71483 27.3544 11.8419 22.2881 15.1184C16.46 18.8876 9.52046 21.4109 2.21958 22.4156C2.05195 22.4386 1.88203 22.3941 1.74719 22.2919C1.61236 22.1896 1.52363 22.038 1.50053 21.8704C1.47746 21.7028 1.52193 21.5329 1.62414 21.398C1.72636 21.2632 1.87796 21.1744 2.04559 21.1514C15.6501 19.2792 27.4871 12.0522 33.3483 2.14272L29.7195 3.08444C29.6384 3.10551 29.5539 3.1104 29.4709 3.09882C29.3879 3.08724 29.308 3.05943 29.2358 3.01696C29.1636 2.97449 29.1004 2.91821 29.0499 2.85133C28.9995 2.78445 28.9627 2.70827 28.9416 2.62716C28.8991 2.46337 28.9234 2.28941 29.0092 2.14354C29.0949 1.99766 29.2351 1.89183 29.3989 1.84932L34.3185 0.572552C34.7489 0.435104 35.0177 0.507656 35.1423 0.597708C35.2184 0.652677 35.2814 0.723775 35.3269 0.805925C35.3724 0.888075 35.3992 0.97925 35.4053 1.07294L35.7648 6.52747Z" fill="#52C41A"/>
</svg>
