<svg width="48" height="48" viewBox="0 0 48 48" fill="none" xmlns="http://www.w3.org/2000/svg">
<path d="M22.599 33.1572C22.599 35.3072 20.9318 37.1045 18.7282 37.505L18.7563 38.6796C18.7684 39.1882 18.3704 39.6104 17.8672 39.6228L17.8448 39.6231C17.6069 39.623 17.3785 39.5289 17.2084 39.3609C17.0382 39.193 16.9398 38.9644 16.934 38.7241L16.9052 37.5188C15.5705 37.3005 14.7261 36.5972 13.92 35.8288C13.5538 35.4796 13.5371 34.8966 13.8824 34.5265C14.2277 34.1565 14.8045 34.1394 15.1707 34.4885C16.1007 35.3752 16.6714 35.7459 17.7989 35.7459C19.4405 35.7459 20.7762 34.5847 20.7762 33.1572C20.7762 31.7298 19.4406 30.5685 17.7989 30.5685C15.1522 30.5685 12.9989 28.5807 12.9989 26.1373C12.9989 23.9865 14.6675 22.1887 16.8724 21.789L16.8416 20.4857C16.8296 19.9771 17.2278 19.5549 17.7309 19.5427C18.2354 19.5295 18.6518 19.933 18.6638 20.4416L18.6956 21.783C19.6189 21.9433 20.471 22.3505 21.1556 22.9683C21.5311 23.3073 21.5637 23.8896 21.2284 24.2691C20.8931 24.6486 20.317 24.6816 19.9415 24.3427C19.3742 23.8307 18.6132 23.5487 17.7987 23.5486C16.1571 23.5487 14.8215 24.71 14.8215 26.1373C14.8215 27.5647 16.1571 28.7261 17.7987 28.7261C20.4457 28.7261 22.599 30.7139 22.599 33.1572ZM47.3332 29.6692V42.7885C47.3332 45.3777 43.67 47.3303 38.8123 47.3303C34.2482 47.3303 30.7389 45.6067 30.3312 43.2509C27.5439 45.9978 23.5287 47.3058 17.9161 47.3299L17.7641 47.3302C8.19549 47.3303 2.89392 43.407 1.08453 34.9932C0.199931 30.8797 0.720792 26.6524 2.63271 22.4286C4.17005 19.0324 6.60693 15.7138 9.71041 12.7782C9.67942 12.7363 9.64916 12.6938 9.62036 12.6497C9.23439 12.0596 9.09886 11.3528 9.23867 10.6596C9.37857 9.96641 9.77712 9.36983 10.361 8.97961C10.4084 8.94817 10.4568 8.91827 10.5061 8.88997L8.64709 4.76008C8.23559 3.84605 8.45542 2.78075 9.1941 2.10919C10.4358 0.980057 11.6355 1.70118 12.3524 2.13213C12.4726 2.20435 12.5842 2.27307 12.7294 2.25972C12.9329 2.24092 13.0466 2.07842 13.1554 1.92366C13.4973 1.43689 13.9658 0.770296 15.016 0.676516C16.0945 0.580894 16.7326 1.22814 17.1981 1.70109C17.3379 1.84305 17.4714 2.00113 17.6739 2.04535C17.9811 2.11241 18.2003 1.90367 18.3997 1.70109C18.8654 1.22814 19.5029 0.58071 20.582 0.676516C21.6321 0.770296 22.1005 1.43689 22.4426 1.92366C22.5259 2.04222 22.6006 2.16879 22.7389 2.2271C22.9237 2.30513 23.0847 2.22849 23.2457 2.13213C23.9625 1.70128 25.1623 0.980149 26.4039 2.10928C27.1424 2.78075 27.3623 3.84605 26.9509 4.75998L25.0916 8.89006C25.5198 9.13592 25.8702 9.49933 26.1024 9.93822C29.2547 9.93693 30.5761 8.5529 32.0911 6.96417C32.6247 6.40463 33.1766 5.82601 33.8209 5.30249C34.2132 4.98375 34.7869 5.04694 35.1023 5.44334C35.4176 5.83983 35.3553 6.41974 34.9629 6.73848C34.4087 7.18886 33.9205 7.70078 33.4034 8.24291C32.3982 9.29706 31.3124 10.4357 29.6482 11.1285C29.83 11.1432 30.0134 11.1567 30.1981 11.1703C32.6857 11.3545 35.5053 11.5632 36.8249 14.6951C37.0221 15.1632 36.8066 15.7043 36.3434 15.9036C36.2306 15.9523 36.1093 15.9775 35.9867 15.9775C35.8079 15.9775 35.633 15.9244 35.4839 15.8248C35.3347 15.7251 35.2178 15.5833 35.1478 15.4171C34.3064 13.42 32.6681 13.2006 30.0649 13.008C28.742 12.9101 27.3862 12.8092 26.1695 12.3028C26.1141 12.4231 26.0498 12.5392 25.9774 12.6499C25.9485 12.694 25.9182 12.7368 25.887 12.7788C30.0225 16.6916 32.93 21.2541 34.1934 25.8095C35.5079 25.3746 37.0843 25.1274 38.8121 25.1274C43.6699 25.1274 47.3332 27.0799 47.3332 29.6692ZM38.8122 26.9698C34.6622 26.9698 32.114 28.542 32.114 29.6692C32.114 30.7964 34.6622 32.3685 38.8122 32.3685C42.9621 32.3685 45.5103 30.7964 45.5103 29.6692C45.5103 28.542 42.9621 26.9698 38.8122 26.9698ZM23.9495 11.9794C24.3754 11.8907 24.6604 11.46 24.5731 11.028C24.4865 10.5986 24.0587 10.3116 23.6334 10.399C19.98 11.1593 15.6175 11.1594 11.9639 10.3989C11.9115 10.3881 11.8581 10.3826 11.8046 10.3826C11.4349 10.3826 11.0981 10.6648 11.0247 11.028C10.9378 11.4588 11.2213 11.8913 11.6468 11.9791C15.5572 12.7929 20.0407 12.7929 23.9495 11.9794ZM10.3062 3.99694L12.3799 8.60357C15.779 9.30295 19.8209 9.30286 23.218 8.60357L25.2917 3.99694C25.408 3.73863 25.2099 3.30013 24.8862 3.36121C24.5824 3.4186 24.3202 3.63076 24.0596 3.78608C23.5753 4.07675 23.001 4.17393 22.4494 4.05856C21.8978 3.94319 21.4089 3.62359 21.0785 3.16251C20.9111 2.93045 20.7407 2.54023 20.4216 2.51176C20.0319 2.47703 19.718 2.98195 19.4714 3.22091C19.0223 3.65842 18.4228 3.90288 17.799 3.9029C17.1752 3.90291 16.5757 3.65849 16.1265 3.221C15.9402 3.04035 15.7666 2.84321 15.5679 2.6762C15.3767 2.51554 15.1403 2.45022 14.9301 2.61466C14.7484 2.75689 14.6519 2.97882 14.5194 3.16251C14.189 3.62364 13.7001 3.94328 13.1485 4.05866C12.5969 4.17403 12.0226 4.07681 11.5383 3.78608C11.3035 3.64541 11.0636 3.47968 10.8045 3.3882C10.454 3.26448 10.1646 3.68244 10.3062 3.99694ZM30.2912 40.4783V29.6692C30.2912 28.44 31.1172 27.3545 32.5043 26.5531C31.3369 22.1115 28.4469 17.62 24.2847 13.7902C22.2233 14.2168 20.0115 14.4306 17.7994 14.4306C15.5872 14.4306 13.3751 14.2169 11.3126 13.7901C4.44876 20.0965 1.37244 27.6581 2.86576 34.6019C4.48366 42.1255 9.08136 45.4875 17.7621 45.4878C17.8111 45.4878 17.859 45.4877 17.9083 45.4875C23.9344 45.4615 27.8784 43.8674 30.2912 40.4783ZM45.5104 42.7885V41.2811C43.9753 42.3114 41.5892 42.9497 38.8123 42.9497C36.0353 42.9497 33.6491 42.3114 32.1141 41.281V42.7885C32.1141 43.9156 34.6623 45.4878 38.8123 45.4878C42.9621 45.4878 45.5104 43.9157 45.5104 42.7885ZM45.5104 38.408V36.9118C43.9753 37.9421 41.5892 38.5803 38.8123 38.5803C36.0353 38.5803 33.6491 37.942 32.1141 36.9117V38.4079C32.1141 39.535 34.6623 41.1072 38.8123 41.1072C42.9621 41.1072 45.5104 39.5351 45.5104 38.408ZM45.5104 34.0386V32.5422C43.9753 33.5726 41.5892 34.2108 38.8123 34.2108C36.0353 34.2108 33.6491 33.5725 32.1141 32.5422V34.0386C32.1141 35.1657 34.6623 36.7379 38.8123 36.7379C42.9621 36.7379 45.5104 35.1657 45.5104 34.0386Z" fill="#3D4A81"/>
</svg>
