<svg width="46" height="46" viewBox="0 0 46 46" fill="none" xmlns="http://www.w3.org/2000/svg">
<path d="M23 0.015625C10.3264 0.015625 0.015625 10.3264 0.015625 23C0.015625 35.6736 10.3264 45.9844 23 45.9844C35.6736 45.9844 45.9844 35.6736 45.9844 23C45.9844 10.3264 35.6736 0.015625 23 0.015625ZM23 44.6816C11.0447 44.6816 1.31838 34.9553 1.31838 23C1.31838 11.0447 11.0447 1.31838 23 1.31838C34.9553 1.31838 44.6816 11.0447 44.6816 23C44.6816 34.9553 34.9553 44.6816 23 44.6816ZM16.4015 17.632C19.0483 17.632 21.2015 15.4787 21.2015 12.832C21.2015 10.1856 19.0483 8.03252 16.4015 8.03252C13.7548 8.03252 11.6015 10.1855 11.6015 12.832C11.6014 15.4787 13.7547 17.632 16.4015 17.632ZM16.4015 9.33537C18.33 9.33537 19.8988 10.904 19.8988 12.8321C19.8988 14.7604 18.3299 16.3293 16.4015 16.3293C14.4732 16.3293 12.9043 14.7604 12.9043 12.8321C12.9042 10.904 14.4731 9.33537 16.4015 9.33537ZM28.6919 21.0218C31.3386 21.0218 33.4919 18.8685 33.4919 16.2218C33.4919 13.5754 31.3386 11.4223 28.6919 11.4223C26.0451 11.4223 23.8918 13.5753 23.8918 16.2218C23.8917 18.8685 26.045 21.0218 28.6919 21.0218ZM28.6919 12.7251C30.6202 12.7251 32.1891 14.2937 32.1891 16.2218C32.1891 18.1501 30.6202 19.719 28.6919 19.719C26.7634 19.719 25.1946 18.1501 25.1946 16.2218C25.1945 14.2937 26.7634 12.7251 28.6919 12.7251ZM28.6919 22.1098C27.1766 22.1098 25.7423 22.4622 24.4657 23.0884C22.6954 20.379 19.6611 18.7201 16.4015 18.7201C11.0927 18.7201 6.77368 23.0388 6.77368 28.3473C6.77368 29.1746 7.16107 29.946 7.89387 30.5781C9.62477 32.0708 13.0781 32.7158 16.3838 32.7158C17.3486 32.7158 18.3 32.66 19.1932 32.5551C19.476 33.4226 20.292 34.3992 22.2953 35.1368C23.9935 35.762 26.2651 36.1063 28.6915 36.1063C33.4837 36.1063 38.319 34.7553 38.319 31.737C38.319 26.4286 34.0003 22.1098 28.6919 22.1098ZM19.0759 31.2575C14.9636 31.7521 10.4202 31.0365 8.74476 29.5915C8.29503 29.2037 8.07644 28.7966 8.07644 28.3473C8.07644 23.7571 11.8111 20.0228 16.4015 20.0228C19.196 20.0228 21.7988 21.4334 23.3352 23.7413C20.8854 25.3876 19.2301 28.1284 19.0759 31.2575ZM34.6376 33.9142C33.1024 34.4795 30.9351 34.8036 28.6915 34.8036C26.4478 34.8036 24.2805 34.4795 22.7454 33.9142C21.6602 33.5148 20.3667 32.8127 20.3667 31.737C20.3667 27.147 24.1013 23.4126 28.6918 23.4126C33.2819 23.4126 37.0162 27.147 37.0162 31.737C37.0163 32.8127 35.7227 33.5147 34.6376 33.9142Z" fill="#1E90FF"/>
</svg>
