<svg width="24" height="25" viewBox="0 0 24 25" fill="none" xmlns="http://www.w3.org/2000/svg">
<path d="M14 9.45234V12.3523H16.6C16.8 12.3523 16.9 12.5523 16.9 12.7523L16.5 14.6523C16.5 14.7523 16.3 14.8523 16.2 14.8523H14V22.1523H11V14.9523H9.3C9.1 14.9523 9 14.8523 9 14.6523V12.7523C9 12.5523 9.1 12.4523 9.3 12.4523H11V9.15234C11 7.45234 12.3 6.15234 14 6.15234H16.7C16.9 6.15234 17 6.25234 17 6.45234V8.85234C17 9.05234 16.9 9.15234 16.7 9.15234H14.3C14.1 9.15234 14 9.25234 14 9.45234Z" stroke="white" stroke-opacity="0.7" stroke-width="1.5" stroke-miterlimit="10" stroke-linecap="round"/>
<path d="M15 22.1523H9C4 22.1523 2 20.1523 2 15.1523V9.15234C2 4.15234 4 2.15234 9 2.15234H15C20 2.15234 22 4.15234 22 9.15234V15.1523C22 20.1523 20 22.1523 15 22.1523Z" stroke="white" stroke-opacity="0.7" stroke-width="1.5" stroke-linecap="round" stroke-linejoin="round"/>
</svg>
