<svg width="24" height="25" viewBox="0 0 24 25" fill="none" xmlns="http://www.w3.org/2000/svg">
<path d="M21.9961 14.8444V14.8428C21.9891 12.5823 21.3988 10.8761 20.2414 9.77068C18.7664 8.36193 16.8664 8.40984 16.118 8.49568C15.0707 8.61568 14.3344 9.03651 13.7969 9.50609V9.02734C13.7969 8.68234 13.5344 8.40234 13.2109 8.40234H9.03125C8.70781 8.40234 8.44531 8.68234 8.44531 9.02734V21.5273C8.44531 21.8723 8.70781 22.1523 9.03125 22.1523H13.2109C13.5344 22.1523 13.7969 21.8723 13.7969 21.5273V14.3807C13.7969 13.7478 14.5738 13.1236 15.3957 13.0957C15.9582 13.0769 16.6441 13.3248 16.7266 14.6082V21.5273C16.7266 21.8723 16.9891 22.1523 17.3125 22.1523H21.4141C21.5695 22.1522 21.7185 22.0863 21.8284 21.969C21.9383 21.8517 22 21.6927 22 21.5269L21.9961 14.8444ZM17.8984 20.9023C17.8984 20.9023 17.898 14.5615 17.8973 14.5482C17.8309 13.4248 17.4004 12.7936 17.0508 12.4619C16.6031 12.0373 16.0176 11.8244 15.359 11.8465C14.0387 11.8907 12.625 12.9198 12.625 14.3807V20.9023H9.61719V9.65234H12.625V11.0923C12.625 11.3573 12.7812 11.5932 13.0152 11.6815C13.2492 11.7698 13.5098 11.6915 13.666 11.4861C14.3094 10.6398 14.8773 9.89526 16.243 9.73859C16.8355 9.67026 18.3355 9.62818 19.4598 10.7019C20.3594 11.5611 20.8184 12.9553 20.8242 14.8461L20.8277 20.9023H17.8984ZM6.6875 8.40234H2.58594C2.2625 8.40234 2 8.68234 2 9.02734V21.5273C2 21.8723 2.2625 22.1523 2.58594 22.1523H6.6875C7.01094 22.1523 7.27344 21.8723 7.27344 21.5273V9.02734C7.27344 8.68234 7.01094 8.40234 6.6875 8.40234ZM6.10156 20.9023H3.17188V9.65234H6.10156V20.9023ZM4.63672 2.15234C3.18281 2.15234 2 3.27401 2 4.65234C2 6.03068 3.18281 7.15234 4.63672 7.15234C6.09062 7.15234 7.27344 6.03068 7.27344 4.65234C7.27344 3.27401 6.09062 2.15234 4.63672 2.15234ZM4.63672 5.90234C3.82891 5.90234 3.17188 5.34151 3.17188 4.65234C3.17188 3.96318 3.82891 3.40234 4.63672 3.40234C5.44453 3.40234 6.10156 3.96318 6.10156 4.65234C6.10156 5.34151 5.44453 5.90234 4.63672 5.90234Z" fill="white" fill-opacity="0.7"/>
</svg>
