<svg width="48" height="48" viewBox="0 0 48 48" fill="none" xmlns="http://www.w3.org/2000/svg">
<path d="M24 4C18.6957 4 13.6086 6.10714 9.85786 9.85786C6.10714 13.6086 4 18.6957 4 24C4 29.3043 6.10714 34.3914 9.85786 38.1421C13.6086 41.8929 18.6957 44 24 44C29.3043 44 34.3914 41.8929 38.1421 38.1421C41.8929 34.3914 44 29.3043 44 24C44 18.6957 41.8929 13.6086 38.1421 9.85786C34.3914 6.10714 29.3043 4 24 4Z" fill="#0288D1"/>
<path d="M14 19H18V34H14V19ZM15.988 17H15.966C14.772 17 14 16.11 14 14.999C14 13.864 14.796 13 16.011 13C17.228 13 17.977 13.864 18 14.999C18 16.11 17.228 17 15.988 17ZM35 24.5C35 21.462 32.538 19 29.5 19C27.638 19 25.995 19.928 25 21.344V19H21V34H25V26C25 24.343 26.343 23 28 23C29.657 23 31 24.343 31 26V34H35C35 34 35 24.921 35 24.5Z" fill="white"/>
</svg>
