<svg width="48" height="48" viewBox="0 0 48 48" fill="none" xmlns="http://www.w3.org/2000/svg">
<path d="M24 4C12.954 4 4 12.954 4 24C4 35.046 12.954 44 24 44C35.046 44 44 35.046 44 24C44 12.954 35.046 4 24 4Z" fill="#03A9F4"/>
<path d="M36 17.12C35.118 17.511 34.001 17.878 33 18C34.018 17.396 35.633 16.138 36 15C35.049 15.559 33.329 16.156 32.207 16.372C29.789 13.808 24 14.755 24 20V22C20 22 16.1 18.953 13.673 16C11.419 19.807 15.531 22.689 16 23C15.193 22.975 13.665 22.359 13 22C13 22.016 13 22.036 13 22.057C13 24.424 14.661 26.031 16.912 26.479C16.501 26.592 16 27 14.072 27C14.698 28.935 17.845 29.958 20 30C17.383 32.029 12.874 32.079 12 31.977C20.989 37.266 34.669 32.49 33.982 19.5C34.95 18.818 35.342 18.104 36 17.12Z" fill="white"/>
</svg>
