<svg width="50" height="50" viewBox="0 0 50 50" fill="none" xmlns="http://www.w3.org/2000/svg">
<path d="M14 3.98926C8.48867 3.98926 4 8.47792 4 13.9893V35.9893C4 41.5006 8.48867 45.9893 14 45.9893H36C41.5113 45.9893 46 41.5006 46 35.9893V13.9893C46 8.47792 41.5113 3.98926 36 3.98926H14ZM14 5.98926H36C40.4307 5.98926 44 9.55859 44 13.9893V35.9893C44 40.4199 40.4307 43.9893 36 43.9893H14C9.56933 43.9893 6 40.4199 6 35.9893V13.9893C6 9.55859 9.56933 5.98926 14 5.98926ZM22.5723 11.8916C22.1879 11.867 21.791 11.9519 21.4336 12.1611C20.4806 12.7201 20.1617 13.9464 20.7207 14.8994L22.5312 17.9893L16.666 27.999H12C10.896 27.999 10 28.895 10 29.999C10 31.103 10.896 31.999 12 31.999H27.4121C27.5691 31.236 27.4732 30.4086 27.0332 29.6436L27.0293 29.6396C26.6423 28.9656 26.1055 28.415 25.4805 27.999H21.3027L28.9785 14.8975C29.5365 13.9445 29.2167 12.7191 28.2637 12.1611C27.3097 11.6031 26.0853 11.923 25.5273 12.876L24.8496 14.0322L24.1719 12.876C23.8225 12.2804 23.2129 11.9326 22.5723 11.8916ZM28.3105 19.9404L27.4844 21.3135C26.5724 22.8295 26.543 24.7059 27.377 26.2549L33.6738 37.001C34.0458 37.637 34.7134 37.9893 35.4004 37.9893C35.7434 37.9893 36.0922 37.9018 36.4102 37.7158C37.3632 37.1578 37.682 35.9325 37.123 34.9795L35.377 31.999H38C39.104 31.999 40 31.103 40 29.999C40 28.895 39.104 27.999 38 27.999H33.0332L28.3105 19.9404ZM14.625 34.0029C14.068 33.9869 13.5267 34.0734 13.0117 34.2354L12.5664 34.9932C12.0074 35.9452 12.3282 37.1715 13.2812 37.7295C13.5992 37.9165 13.9461 38.0049 14.2891 38.0049C14.9761 38.0049 15.6446 37.6496 16.0176 37.0146L17.0938 35.1787C16.5087 34.4957 15.6539 34.0329 14.6309 34.0029H14.625Z" fill="white" fill-opacity="0.7"/>
</svg>
