<svg width="49" height="48" viewBox="0 0 49 48" fill="none" xmlns="http://www.w3.org/2000/svg">
<path d="M24.5 5C19.4609 5 14.6282 7.00178 11.065 10.565C7.50178 14.1282 5.5 18.9609 5.5 24C5.5 29.0391 7.50178 33.8718 11.065 37.435C14.6282 40.9982 19.4609 43 24.5 43C29.5391 43 34.3718 40.9982 37.935 37.435C41.4982 33.8718 43.5 29.0391 43.5 24C43.5 18.9609 41.4982 14.1282 37.935 10.565C34.3718 7.00178 29.5391 5 24.5 5Z" fill="#039BE5"/>
<path d="M27.072 29.036H31.989L32.761 24.041H27.071V21.311C27.071 19.236 27.749 17.396 29.69 17.396H32.809V13.037C32.261 12.963 31.102 12.801 28.912 12.801C24.339 12.801 21.658 15.216 21.658 20.718V24.041H16.957V29.036H21.658V42.765C22.589 42.905 23.532 43 24.5 43C25.375 43 26.229 42.92 27.072 42.806V29.036Z" fill="white"/>
</svg>
