<svg width="13" height="12" viewBox="0 0 13 12" fill="none" xmlns="http://www.w3.org/2000/svg">
<g clip-path="url(#clip0_181944_25451)">
<path d="M9.33986 2.07231V1.03705C9.33986 0.947315 9.23674 0.897761 9.1671 0.952672L3.1296 5.6683C3.0783 5.70819 3.03679 5.75927 3.00824 5.81765C2.97969 5.87602 2.96484 5.94015 2.96484 6.00513C2.96484 6.07011 2.97969 6.13424 3.00824 6.19261C3.03679 6.25098 3.0783 6.30207 3.1296 6.34196L9.1671 11.0576C9.23808 11.1125 9.33986 11.0629 9.33986 10.9732V9.93794C9.33986 9.87232 9.30906 9.80937 9.25817 9.76919L4.43674 6.0058L9.25817 2.24106C9.30906 2.20089 9.33986 2.13794 9.33986 2.07231Z" fill="#D9D9D9"/>
</g>
<defs>
<clipPath id="clip0_181944_25451">
<rect width="12" height="12" fill="white" transform="translate(0.5 0.00585938)"/>
</clipPath>
</defs>
</svg>
