<svg width="25" height="24" viewBox="0 0 25 24" fill="none" xmlns="http://www.w3.org/2000/svg">
<path d="M12.4902 2.25H12.5C15.8659 2.25 19.6466 4.22162 20.6328 8.56055C21.7411 13.4486 18.7564 17.6357 15.9238 20.3594L15.9219 20.3613C14.9688 21.2872 13.735 21.75 12.5 21.75C11.2655 21.75 10.0305 21.2871 9.06641 20.3594C6.32271 17.7211 3.43571 13.6998 4.26562 9.00684L4.35742 8.55078C5.34332 4.21281 9.13292 2.25 12.4902 2.25ZM12.5 6.66016C10.484 6.66021 8.84984 8.29366 8.84961 10.3096C8.84961 12.3257 10.4839 13.9599 12.5 13.96C14.5161 13.96 16.1504 12.3257 16.1504 10.3096C16.1502 8.29363 14.516 6.66016 12.5 6.66016Z" fill="#0E883D" stroke="#0E883D"/>
</svg>
