<svg width="46" height="46" viewBox="0 0 46 46" fill="none" xmlns="http://www.w3.org/2000/svg">
<path d="M45.4057 9.69602C45.2721 7.31968 44.2679 5.07581 42.5849 3.39283C40.902 1.70985 38.6581 0.705669 36.2817 0.572021C27.4688 0.0720215 18.5308 0.0720215 9.71775 0.572021C7.34149 0.705885 5.09773 1.71013 3.4148 3.39307C1.73186 5.07601 0.727613 7.31976 0.59375 9.69602C0.09375 18.509 0.09375 27.446 0.59375 36.26C0.727613 38.6363 1.73186 40.88 3.4148 42.563C5.09773 44.2459 7.34149 45.2502 9.71775 45.384C18.5527 45.886 27.4478 45.885 36.2817 45.384C38.6581 45.2504 40.902 44.2462 42.5849 42.5632C44.2679 40.8802 45.2721 38.6364 45.4057 36.26C45.9057 27.447 45.9057 18.51 45.4057 9.69602Z" fill="url(#paint0_linear_166_10618)"/>
<path d="M34.436 15.3889C34.761 14.9289 34.942 14.3829 34.942 13.8079C34.9432 13.4466 34.8727 13.0886 34.7345 12.7547C34.5963 12.4208 34.3932 12.1177 34.137 11.8629C33.6784 11.4063 33.0734 11.1261 32.4286 11.0718C31.7838 11.0175 31.1404 11.1924 30.612 11.5659C25.227 7.98391 17.881 8.66791 13.28 13.2789C8.66797 17.8819 7.98397 25.2239 11.564 30.6109C11.2349 31.0724 11.058 31.6251 11.058 32.1919C11.058 32.9269 11.344 33.6179 11.863 34.1369C12.3202 34.5945 12.9246 34.8756 13.5691 34.9305C14.2137 34.9854 14.8569 34.8105 15.385 34.4369C17.6342 35.9309 20.2748 36.7265 22.975 36.7239C26.535 36.7239 30.08 35.3669 32.72 32.7209C37.332 28.1179 38.016 20.7759 34.436 15.3889ZM31.659 31.6599C27.593 35.7339 21.125 36.3679 16.339 33.2669C16.5543 32.7627 16.6134 32.2055 16.5088 31.6673C16.4042 31.1291 16.1405 30.6347 15.752 30.2479C15.3643 29.8613 14.8701 29.5992 14.3326 29.4952C13.7952 29.3911 13.2389 29.4499 12.735 29.6639C9.63197 24.8759 10.264 18.4079 14.341 14.3399C18.406 10.2649 24.874 9.62991 29.661 12.7329C29.4455 13.2371 29.3863 13.7943 29.4909 14.3325C29.5956 14.8707 29.8593 15.3652 30.248 15.7519C30.6349 16.1396 31.1292 16.4024 31.6669 16.5065C32.2047 16.6106 32.7613 16.5512 33.265 16.3359C36.368 21.1239 35.736 27.5919 31.659 31.6599Z" fill="#FD6700"/>
<path d="M18.25 23C18.25 22.218 18.308 21.467 18.408 20.75H14.554C14.362 21.47 14.25 22.221 14.25 23C14.25 23.779 14.362 24.53 14.554 25.25H18.408C18.3033 24.5046 18.2506 23.7528 18.25 23Z" fill="#FD6700"/>
<path d="M23 15.75C21.971 15.75 20.867 17.088 20.247 19.25H25.753C25.133 17.088 24.029 15.75 23 15.75ZM23 30.25C24.029 30.25 25.133 28.912 25.753 26.75H20.247C20.867 28.912 21.971 30.25 23 30.25ZM26.25 23C26.25 22.201 26.19 21.447 26.083 20.75H19.917C19.81 21.447 19.75 22.201 19.75 23C19.75 23.799 19.81 24.553 19.917 25.25H26.083C26.19 24.553 26.25 23.799 26.25 23Z" fill="#FD6700"/>
<path d="M18.6975 26.75H15.1055C16.5135 29.7 19.5175 31.75 22.9995 31.75C21.0695 31.75 19.4475 29.727 18.6975 26.75ZM22.9995 14.25C19.5175 14.25 16.5135 16.3 15.1055 19.25H18.6975C19.4475 16.273 21.0705 14.25 22.9995 14.25Z" fill="#FD6700"/>
<path d="M27.5918 20.75C27.6918 21.467 27.7498 22.218 27.7498 23C27.7498 23.782 27.6918 24.533 27.5918 25.25H31.4458C31.6378 24.53 31.7498 23.779 31.7498 23C31.7498 22.221 31.6378 21.47 31.4458 20.75H27.5918Z" fill="#FD6700"/>
<path d="M23 31.75C26.482 31.75 29.486 29.7 30.894 26.75H27.302C26.552 29.727 24.929 31.75 23 31.75ZM27.302 19.25H30.894C29.486 16.3 26.482 14.25 23 14.25C24.93 14.25 26.552 16.273 27.302 19.25Z" fill="#FD6700"/>
<defs>
<linearGradient id="paint0_linear_166_10618" x1="22.9997" y1="-0.0219785" x2="22.9997" y2="45.971" gradientUnits="userSpaceOnUse">
<stop stop-color="#FFFCD9"/>
<stop offset="0.778" stop-color="#FFEBA8"/>
<stop offset="1" stop-color="#FFE699"/>
</linearGradient>
</defs>
</svg>
