<svg width="16" height="16" viewBox="0 0 16 16" fill="none" xmlns="http://www.w3.org/2000/svg">
<path d="M6.10002 4.99316C5.72668 4.99316 5.43335 5.29316 5.43335 5.65983C5.43335 6.0265 5.73335 6.3265 6.10002 6.3265C6.46668 6.3265 6.76668 6.0265 6.76668 5.65983C6.76668 5.29316 6.46668 4.99316 6.10002 4.99316Z" fill="#0E883D"/>
<path d="M14.3067 3.36016C13.7467 2.06016 12.5134 1.3335 10.7934 1.3335H5.20671C3.06671 1.3335 1.33337 3.06683 1.33337 5.20683V10.7935C1.33337 12.5135 2.06004 13.7468 3.36004 14.3068C3.48671 14.3602 3.63337 14.3268 3.72671 14.2335L14.2334 3.72683C14.3334 3.62683 14.3667 3.48016 14.3067 3.36016ZM7.02004 8.16016C6.76004 8.4135 6.42004 8.5335 6.08004 8.5335C5.74004 8.5335 5.40004 8.40683 5.14004 8.16016C4.46004 7.52016 3.71337 6.50016 4.00004 5.28683C4.25337 4.18683 5.22671 3.6935 6.08004 3.6935C6.93337 3.6935 7.90671 4.18683 8.16004 5.2935C8.44004 6.50016 7.69337 7.52016 7.02004 8.16016Z" fill="#0E883D"/>
<path d="M12.98 13.6868C13.1267 13.8335 13.1067 14.0735 12.9267 14.1735C12.34 14.5002 11.6267 14.6668 10.7933 14.6668H5.20668C5.01335 14.6668 4.93335 14.4402 5.06668 14.3068L9.09335 10.2802C9.22668 10.1468 9.43335 10.1468 9.56668 10.2802L12.98 13.6868Z" fill="#0E883D"/>
<path d="M14.6667 5.20643V10.7931C14.6667 11.6264 14.5 12.3464 14.1733 12.9264C14.0733 13.1064 13.8333 13.1198 13.6867 12.9798L10.2733 9.56643C10.14 9.4331 10.14 9.22643 10.2733 9.0931L14.3 5.06643C14.44 4.9331 14.6667 5.0131 14.6667 5.20643Z" fill="#0E883D"/>
</svg>
