<svg width="25" height="24" viewBox="0 0 25 24" fill="none" xmlns="http://www.w3.org/2000/svg">
<path d="M8.29703 3.56999C8.47641 3.47215 8.66703 3.62267 8.66703 3.82701V17.3828C8.66703 17.6061 8.51461 17.7949 8.31723 17.8991C8.31046 17.9027 8.30373 17.9063 8.29703 17.91L5.94703 19.25C4.30703 20.19 2.95703 19.41 2.95703 17.51V7.77999C2.95703 7.14999 3.40703 6.36999 3.96703 6.04999L8.29703 3.56999Z" fill="white"/>
<path d="M15.3889 6.10227C15.5592 6.18663 15.667 6.36026 15.667 6.55034V19.7035C15.667 20.072 15.2819 20.3139 14.95 20.1539L10.7 18.1063C10.527 18.023 10.417 17.8479 10.417 17.6559V4.44558C10.417 4.07472 10.8066 3.83293 11.1389 3.99751L15.3889 6.10227Z" fill="white"/>
<path d="M22.667 6.49V16.22C22.667 16.85 22.217 17.63 21.657 17.95L18.1656 19.951C17.8323 20.142 17.417 19.9013 17.417 19.5172V6.33032C17.417 6.15081 17.5132 5.98507 17.6691 5.89608L19.677 4.75C21.317 3.81 22.667 4.59 22.667 6.49Z" fill="white"/>
</svg>
