<svg width="13" height="12" viewBox="0 0 13 12" fill="none" xmlns="http://www.w3.org/2000/svg">
<g clip-path="url(#clip0_181944_25459)">
<path d="M9.89777 5.66818L3.86027 0.95256C3.84449 0.94014 3.82553 0.932421 3.80557 0.93029C3.7856 0.92816 3.76544 0.931703 3.7474 0.940515C3.72936 0.949326 3.71417 0.963047 3.70357 0.980103C3.69298 0.997158 3.68741 1.01686 3.6875 1.03693V2.0722C3.6875 2.13783 3.7183 2.20077 3.7692 2.24095L8.59063 6.00568L3.7692 9.77042C3.71697 9.8106 3.6875 9.87354 3.6875 9.93917V10.9744C3.6875 11.0642 3.79063 11.1137 3.86027 11.0588L9.89777 6.34319C9.94908 6.30316 9.9906 6.25196 10.0191 6.19347C10.0477 6.13499 10.0625 6.07077 10.0625 6.00568C10.0625 5.9406 10.0477 5.87638 10.0191 5.8179C9.9906 5.75942 9.94908 5.70821 9.89777 5.66818Z" fill="black" fill-opacity="0.85"/>
</g>
<defs>
<clipPath id="clip0_181944_25459">
<rect width="12" height="12" fill="white" transform="translate(0.5 0.00585938)"/>
</clipPath>
</defs>
</svg>
