<svg width="24" height="24" viewBox="0 0 24 24" fill="none" xmlns="http://www.w3.org/2000/svg">
<path d="M1.18383 11.9448C1.13451 12.258 1.34844 12.552 1.66166 12.6013C5.16077 13.1523 8.44411 10.7625 8.99517 7.26339C9.04449 6.95017 8.83056 6.65624 8.51733 6.60692C5.01823 6.05582 1.73493 8.4457 1.18383 11.9448Z" fill="url(#paint0_linear_182027_13739)"/>
<path d="M2.9707 12.6729C5.75428 12.5403 8.18087 10.5962 8.87588 7.84192C6.09226 7.97448 3.66571 9.91858 2.9707 12.6729Z" fill="url(#paint1_linear_182027_13739)"/>
<path d="M22.8165 11.9448C22.8658 12.258 22.6518 12.552 22.3386 12.6013C18.8395 13.1523 15.5562 10.7625 15.0051 7.26339C14.9558 6.95017 15.1697 6.65624 15.483 6.60692C18.9821 6.05582 22.2654 8.4457 22.8165 11.9448Z" fill="url(#paint2_linear_182027_13739)"/>
<path d="M22.8165 11.9448C22.8658 12.258 22.6518 12.552 22.3386 12.6013C18.8395 13.1523 15.5562 10.7625 15.0051 7.26339C14.9558 6.95017 15.1697 6.65624 15.483 6.60692C18.9821 6.05582 22.2654 8.4457 22.8165 11.9448Z" fill="url(#paint3_linear_182027_13739)"/>
<path d="M21.0292 12.6729C18.2456 12.5403 15.819 10.5962 15.124 7.84192C17.9076 7.97448 20.3342 9.91858 21.0292 12.6729Z" fill="url(#paint4_linear_182027_13739)"/>
<path d="M17.5837 13.5867C17.9513 16.9135 15.3467 19.8217 11.9996 19.8217C8.65263 19.8217 6.04802 16.9135 6.41555 13.5867C6.51531 12.6836 6.26336 11.7796 5.7227 11.0493C5.31588 10.4999 5.08887 9.88795 5.08887 9.24292C5.08887 6.8609 8.18294 4.92993 11.9996 4.92993C15.8163 4.92993 18.9104 6.86094 18.9104 9.24292C18.9104 9.88795 18.6834 10.4999 18.2766 11.0493C17.7359 11.7795 17.484 12.6836 17.5837 13.5867Z" fill="url(#paint5_linear_182027_13739)"/>
<path d="M8.03294 14.6342C7.69732 14.5821 7.42433 14.3443 7.30612 14.0259C7.279 13.9529 7.24725 13.8817 7.21106 13.8127C7.08696 13.5762 6.81181 13.4622 6.55797 13.5451L6.55788 13.5452C6.46228 13.5766 6.37846 13.6364 6.31751 13.7165C6.25655 13.7966 6.22132 13.8933 6.21647 13.9938C6.1343 15.734 6.83557 17.3363 8.01063 18.455C8.10123 18.36 8.17743 18.2522 8.2368 18.1352C8.31852 17.9746 8.36697 17.7991 8.37925 17.6193C8.39614 17.3711 8.51986 17.1442 8.70795 16.9813C9.10513 16.6373 9.27976 16.0766 9.10626 15.5459C8.94343 15.0478 8.5176 14.7094 8.03294 14.6342Z" fill="url(#paint6_linear_182027_13739)"/>
<path d="M14.6743 16.5445C13.1974 18.0214 10.8028 18.0214 9.32584 16.5445C9.13378 16.3524 8.90576 16.2001 8.65482 16.0962C8.40388 15.9922 8.13492 15.9387 7.8633 15.9387C6.72099 15.9387 5.79492 16.8647 5.79492 18.0071C5.79492 19.916 7.3424 21.4635 9.2513 21.4635H14.7489C16.6577 21.4635 18.2052 19.916 18.2052 18.0071C18.2052 16.8648 17.2792 15.9387 16.1369 15.9387C15.8652 15.9387 15.5963 15.9922 15.3453 16.0961C15.0944 16.2001 14.8664 16.3524 14.6743 16.5445Z" fill="url(#paint7_linear_182027_13739)"/>
<path d="M5.81055 18.326C5.97158 20.0853 7.45041 21.4634 9.25172 21.4634H14.7493C16.5506 21.4634 18.0294 20.0853 18.1905 18.326H5.81055Z" fill="url(#paint8_linear_182027_13739)"/>
<path d="M8.48147 20.1476C9.25651 20.1476 9.88481 19.5193 9.88481 18.7442C9.88481 17.9692 9.25651 17.3409 8.48147 17.3409C7.70642 17.3409 7.07812 17.9692 7.07812 18.7442C7.07812 19.5193 7.70642 20.1476 8.48147 20.1476Z" fill="url(#paint9_linear_182027_13739)"/>
<path d="M15.5186 20.1476C16.2936 20.1476 16.9219 19.5193 16.9219 18.7442C16.9219 17.9692 16.2936 17.3409 15.5186 17.3409C14.7435 17.3409 14.1152 17.9692 14.1152 18.7442C14.1152 19.5193 14.7435 20.1476 15.5186 20.1476Z" fill="url(#paint10_linear_182027_13739)"/>
<path d="M9.10805 12.8898C8.46532 12.8898 7.94434 12.3687 7.94434 11.726V11.1292C7.94434 10.4865 8.46532 9.96552 9.10805 9.96552C9.75074 9.96552 10.2718 10.4865 10.2718 11.1292V11.726C10.2718 12.3687 9.75074 12.8898 9.10805 12.8898Z" fill="url(#paint11_linear_182027_13739)"/>
<path d="M14.8913 12.8898C14.2485 12.8898 13.7275 12.3687 13.7275 11.726V11.1292C13.7275 10.4865 14.2485 9.96552 14.8913 9.96552C15.534 9.96552 16.055 10.4865 16.055 11.1292V11.726C16.055 12.3687 15.534 12.8898 14.8913 12.8898Z" fill="url(#paint12_linear_182027_13739)"/>
<path d="M13.749 16.5952C13.8931 16.7773 14.0736 16.9076 14.2698 16.9868C14.5341 17.0934 14.7225 17.3271 14.7626 17.6092C14.8122 17.9603 14.9794 18.2842 15.2368 18.5281C15.8225 19.0853 16.756 19.104 17.3619 18.5689C18.0493 17.9618 18.0737 16.9114 17.4352 16.2728C17.1943 16.0312 16.881 15.8747 16.5431 15.8272C16.2645 15.788 16.0275 15.5974 15.9227 15.3364C15.8592 15.1784 15.7643 15.0349 15.6437 14.9146C15.1149 14.3858 14.2353 14.4215 13.7538 15.0218C13.3885 15.4772 13.3866 16.1375 13.749 16.5952Z" fill="url(#paint13_linear_182027_13739)"/>
<path d="M14.2011 9.19265C14.1042 9.30044 13.9997 9.40108 13.8883 9.49378C13.4099 9.89142 13.0541 10.416 12.8364 10.9987L12.8228 11.0352C12.5374 11.7961 11.458 11.7968 11.1714 11.0365L11.1515 10.9838C10.935 10.406 10.583 9.88498 10.1095 9.48926C9.99849 9.3964 9.8943 9.29565 9.79776 9.1878C8.7987 8.07237 8.80228 6.35538 9.80562 5.2438C10.9808 3.94182 13.0147 3.93989 14.1924 5.23801C15.2021 6.35086 15.2058 8.07528 14.2011 9.19265Z" fill="url(#paint14_linear_182027_13739)"/>
<path d="M13.8886 9.49374C13.4103 9.89139 13.0545 10.416 12.8368 10.9987L12.8231 11.0352C12.681 11.4141 12.342 11.6044 12.002 11.6062V4.26593C12.8033 4.26593 13.6047 4.58988 14.1927 5.23798C15.2024 6.35087 15.2061 8.07525 14.2014 9.19266C14.1045 9.30046 14 9.40109 13.8886 9.49374Z" fill="url(#paint15_linear_182027_13739)"/>
<path d="M9.91239 5.13111C11.0661 3.97737 12.9367 3.97737 14.0904 5.13111C14.7916 5.83238 15.0658 6.79831 14.9146 7.7073H9.08815C8.93695 6.79831 9.21112 5.83238 9.91239 5.13111Z" fill="url(#paint16_linear_182027_13739)"/>
<path d="M11.6859 9.41649L10.3331 7.36666C9.45569 6.03734 10.4091 4.26581 12.0018 4.26581C13.5946 4.26581 14.5479 6.03729 13.6706 7.36666L12.3177 9.41649C12.1682 9.64317 11.8355 9.64317 11.6859 9.41649Z" fill="url(#paint17_linear_182027_13739)"/>
<path d="M10.3331 7.36667C9.45569 6.03735 10.4091 4.26587 12.0018 4.26587C13.5946 4.26587 14.5479 6.03735 13.6706 7.36667L13.4458 7.70733H10.5579L10.3331 7.36667Z" fill="url(#paint18_linear_182027_13739)"/>
<path d="M12.0013 7.70735C12.8132 7.70735 13.4714 7.04918 13.4714 6.23728C13.4714 5.42539 12.8132 4.76721 12.0013 4.76721C11.1894 4.76721 10.5312 5.42539 10.5312 6.23728C10.5312 7.04918 11.1894 7.70735 12.0013 7.70735Z" fill="url(#paint19_linear_182027_13739)"/>
<path d="M12.002 7.23924C12.5554 7.23924 13.004 6.79064 13.004 6.23727C13.004 5.68389 12.5554 5.23529 12.002 5.23529C11.4486 5.23529 11 5.68389 11 6.23727C11 6.79064 11.4486 7.23924 12.002 7.23924Z" fill="url(#paint20_linear_182027_13739)"/>
<path d="M10.5248 9.32665C10.751 9.32665 10.9344 9.14326 10.9344 8.91705C10.9344 8.69083 10.751 8.50745 10.5248 8.50745C10.2986 8.50745 10.1152 8.69083 10.1152 8.91705C10.1152 9.14326 10.2986 9.32665 10.5248 9.32665Z" fill="url(#paint21_linear_182027_13739)"/>
<path d="M13.478 9.32665C13.7042 9.32665 13.8876 9.14326 13.8876 8.91705C13.8876 8.69083 13.7042 8.50745 13.478 8.50745C13.2517 8.50745 13.0684 8.69083 13.0684 8.91705C13.0684 9.14326 13.2517 9.32665 13.478 9.32665Z" fill="url(#paint22_linear_182027_13739)"/>
<path d="M8.57624 3.29756C8.04339 3.48942 7.47064 3.6298 6.86607 3.70965C4.94748 3.96297 3.08353 3.55667 1.63911 2.69972C1.00141 2.32137 0.0785896 2.6378 0.0186837 3.26848C0.0145896 3.31163 0.0111543 3.35483 0.00833073 3.39803C-0.0940693 4.97507 0.755201 6.45916 2.13346 7.23243C2.25109 7.29838 2.37049 7.36112 2.49153 7.42057C5.38744 8.84382 9.22122 8.33761 11.3825 6.2466C11.421 6.20927 11.459 6.17147 11.4966 6.13318C12.4794 5.1201 11.9464 3.40805 10.5616 3.13474C9.95097 3.01422 9.26937 3.04801 8.57624 3.29756Z" fill="url(#paint23_linear_182027_13739)"/>
<path d="M15.4238 3.29753C15.9566 3.48939 16.5294 3.62977 17.1339 3.70962C19.0525 3.96294 20.9165 3.55664 22.3609 2.6997C22.9986 2.32139 23.9214 2.63781 23.9813 3.26845C23.9854 3.3116 23.9888 3.3548 23.9916 3.398C24.094 4.97504 23.2448 6.45913 21.8665 7.2324C21.7489 7.29835 21.6295 7.36109 21.5084 7.42054C18.6125 8.84379 14.7787 8.33758 12.6174 6.24657C12.5789 6.20924 12.5409 6.17144 12.5034 6.13315C11.5205 5.12007 12.0536 3.40802 13.4384 3.13471C14.049 3.01419 14.7306 3.04798 15.4238 3.29753Z" fill="url(#paint24_linear_182027_13739)"/>
<path d="M10.2989 16.113C10.65 16.113 10.9346 15.8283 10.9346 15.4772C10.9346 15.1261 10.65 14.8414 10.2989 14.8414C9.94773 14.8414 9.66309 15.1261 9.66309 15.4772C9.66309 15.8283 9.94773 16.113 10.2989 16.113Z" fill="url(#paint25_linear_182027_13739)"/>
<path d="M17.7363 16.6944C17.693 16.6422 17.6473 16.5923 17.5998 16.5443C17.2252 16.1702 16.7081 15.9387 16.1372 15.9387C15.8629 15.9387 15.5942 15.9933 15.3457 16.0963C15.0945 16.1999 14.8664 16.3523 14.6746 16.5448C14.5257 16.6939 14.3645 16.8302 14.1928 16.9523C14.0266 16.8723 13.8737 16.7533 13.749 16.5951C13.3866 16.1377 13.3885 15.477 13.7537 15.022C14.2351 14.4215 15.1146 14.3857 15.6436 14.9147C15.7683 15.0389 15.861 15.1829 15.9226 15.3363C16.0276 15.5975 16.2648 15.7881 16.5429 15.8271C16.8695 15.8733 17.1843 16.022 17.4351 16.2728C17.5582 16.3956 17.66 16.5381 17.7363 16.6944Z" fill="url(#paint26_linear_182027_13739)"/>
<path d="M17.1334 3.65771C16.5289 3.5779 15.9561 3.43748 15.4233 3.24562C15.098 3.12849 14.7752 3.05908 14.4611 3.03075C14.37 3.02251 14.2956 3.10077 14.3056 3.19169C14.3804 3.87922 14.8401 4.45023 15.4647 4.68675C15.706 4.77809 15.8562 5.02727 15.8152 5.28199C15.8006 5.37337 15.7969 5.46617 15.8043 5.55842C15.8482 6.11494 16.2949 6.56764 16.851 6.61724C17.2522 6.65301 17.6156 6.48374 17.8484 6.20242C18.1068 5.89009 18.5037 5.72647 18.9089 5.73785C19.0427 5.74162 19.179 5.73531 19.3172 5.71809C20.5638 5.56298 21.539 4.51475 21.6095 3.26054L21.6096 3.25823C21.6154 3.15385 21.5085 3.08025 21.4118 3.12011C20.1412 3.64449 18.6546 3.85856 17.1334 3.65771Z" fill="url(#paint27_linear_182027_13739)"/>
<defs>
<linearGradient id="paint0_linear_182027_13739" x1="3.93164" y1="8.44622" x2="7.21903" y2="11.7337" gradientUnits="userSpaceOnUse">
<stop stop-color="#F89580"/>
<stop offset="1" stop-color="#C4573A"/>
</linearGradient>
<linearGradient id="paint1_linear_182027_13739" x1="5.69541" y1="12.8042" x2="6.06167" y2="8.71086" gradientUnits="userSpaceOnUse">
<stop stop-color="#C4573A" stop-opacity="0"/>
<stop offset="1" stop-color="#883F2E"/>
</linearGradient>
<linearGradient id="paint2_linear_182027_13739" x1="20.0687" y1="8.44622" x2="16.7813" y2="11.7337" gradientUnits="userSpaceOnUse">
<stop stop-color="#F89580"/>
<stop offset="1" stop-color="#C4573A"/>
</linearGradient>
<linearGradient id="paint3_linear_182027_13739" x1="20.8078" y1="10.1935" x2="18.3842" y2="9.44052" gradientUnits="userSpaceOnUse">
<stop stop-color="#C4573A" stop-opacity="0"/>
<stop offset="1" stop-color="#883F2E"/>
</linearGradient>
<linearGradient id="paint4_linear_182027_13739" x1="18.3045" y1="12.8042" x2="17.9383" y2="8.71086" gradientUnits="userSpaceOnUse">
<stop stop-color="#C4573A" stop-opacity="0"/>
<stop offset="1" stop-color="#883F2E"/>
</linearGradient>
<linearGradient id="paint5_linear_182027_13739" x1="8.67282" y1="8.29544" x2="15.5009" y2="15.1235" gradientUnits="userSpaceOnUse">
<stop stop-color="#F89580"/>
<stop offset="1" stop-color="#C4573A"/>
</linearGradient>
<linearGradient id="paint6_linear_182027_13739" x1="6.4359" y1="14.776" x2="8.5239" y2="16.864" gradientUnits="userSpaceOnUse">
<stop stop-color="#26A6FE"/>
<stop offset="1" stop-color="#0182FC"/>
</linearGradient>
<linearGradient id="paint7_linear_182027_13739" x1="10.7353" y1="15.5489" x2="13.8376" y2="21.969" gradientUnits="userSpaceOnUse">
<stop stop-color="#FFDFCF"/>
<stop offset="1" stop-color="#FFA78F"/>
</linearGradient>
<linearGradient id="paint8_linear_182027_13739" x1="12.0005" y1="19.7944" x2="12.0005" y2="21.5831" gradientUnits="userSpaceOnUse">
<stop stop-color="#F89580" stop-opacity="0"/>
<stop offset="0.997" stop-color="#C5715A"/>
</linearGradient>
<linearGradient id="paint9_linear_182027_13739" x1="8.02914" y1="17.8082" x2="9.05116" y2="19.9231" gradientUnits="userSpaceOnUse">
<stop stop-color="#5A5A5A"/>
<stop offset="1" stop-color="#444444"/>
</linearGradient>
<linearGradient id="paint10_linear_182027_13739" x1="15.0662" y1="17.8082" x2="16.0883" y2="19.9231" gradientUnits="userSpaceOnUse">
<stop stop-color="#5A5A5A"/>
<stop offset="1" stop-color="#444444"/>
</linearGradient>
<linearGradient id="paint11_linear_182027_13739" x1="8.34904" y1="10.869" x2="9.96476" y2="12.0583" gradientUnits="userSpaceOnUse">
<stop stop-color="#5A5A5A"/>
<stop offset="1" stop-color="#444444"/>
</linearGradient>
<linearGradient id="paint12_linear_182027_13739" x1="14.0535" y1="10.7993" x2="15.4897" y2="11.8764" gradientUnits="userSpaceOnUse">
<stop stop-color="#5A5A5A"/>
<stop offset="1" stop-color="#444444"/>
</linearGradient>
<linearGradient id="paint13_linear_182027_13739" x1="14.2305" y1="15.2953" x2="17.2781" y2="18.3429" gradientUnits="userSpaceOnUse">
<stop stop-color="#B4EBA8"/>
<stop offset="1" stop-color="#24CE20"/>
</linearGradient>
<linearGradient id="paint14_linear_182027_13739" x1="11.1108" y1="6.62102" x2="14.1506" y2="9.66074" gradientUnits="userSpaceOnUse">
<stop stop-color="#FEE45A"/>
<stop offset="1" stop-color="#FEA613"/>
</linearGradient>
<linearGradient id="paint15_linear_182027_13739" x1="13.8332" y1="8.40871" x2="12.2214" y2="7.93812" gradientUnits="userSpaceOnUse">
<stop stop-color="#FEA613" stop-opacity="0"/>
<stop offset="1" stop-color="#E94444"/>
</linearGradient>
<linearGradient id="paint16_linear_182027_13739" x1="12.0014" y1="6.4625" x2="12.0014" y2="4.33408" gradientUnits="userSpaceOnUse">
<stop stop-color="#007E49" stop-opacity="0"/>
<stop offset="1" stop-color="#007E49"/>
</linearGradient>
<linearGradient id="paint17_linear_182027_13739" x1="11.3664" y1="5.95395" x2="14.173" y2="8.76054" gradientUnits="userSpaceOnUse">
<stop stop-color="#D9B1EE"/>
<stop offset="1" stop-color="#814AA0"/>
</linearGradient>
<linearGradient id="paint18_linear_182027_13739" x1="12.0018" y1="6.53053" x2="12.0018" y2="4.53843" gradientUnits="userSpaceOnUse">
<stop stop-color="#5B3374" stop-opacity="0"/>
<stop offset="1" stop-color="#5B3374"/>
</linearGradient>
<linearGradient id="paint19_linear_182027_13739" x1="13.1066" y1="7.3426" x2="10.4544" y2="4.69041" gradientUnits="userSpaceOnUse">
<stop stop-color="#D9B1EE"/>
<stop offset="1" stop-color="#814AA0"/>
</linearGradient>
<linearGradient id="paint20_linear_182027_13739" x1="11.6249" y1="5.86023" x2="12.5368" y2="6.77214" gradientUnits="userSpaceOnUse">
<stop stop-color="#FD4755"/>
<stop offset="1" stop-color="#A72B2B"/>
</linearGradient>
<linearGradient id="paint21_linear_182027_13739" x1="10.2168" y1="8.60905" x2="10.9236" y2="9.31582" gradientUnits="userSpaceOnUse">
<stop stop-color="#B4EBA8"/>
<stop offset="1" stop-color="#24CE20"/>
</linearGradient>
<linearGradient id="paint22_linear_182027_13739" x1="13.1697" y1="8.60876" x2="13.7991" y2="9.23822" gradientUnits="userSpaceOnUse">
<stop stop-color="#B4EBA8"/>
<stop offset="1" stop-color="#24CE20"/>
</linearGradient>
<linearGradient id="paint23_linear_182027_13739" x1="5.97271" y1="3.95963" x2="6.18193" y2="6.70612" gradientUnits="userSpaceOnUse">
<stop stop-color="#5A5A5A"/>
<stop offset="1" stop-color="#444444"/>
</linearGradient>
<linearGradient id="paint24_linear_182027_13739" x1="17.9312" y1="3.78981" x2="18.4805" y2="7.13795" gradientUnits="userSpaceOnUse">
<stop stop-color="#5A5A5A"/>
<stop offset="1" stop-color="#444444"/>
</linearGradient>
<linearGradient id="paint25_linear_182027_13739" x1="10.0147" y1="15.193" x2="10.5979" y2="15.7763" gradientUnits="userSpaceOnUse">
<stop stop-color="#26A6FE"/>
<stop offset="1" stop-color="#0182FC"/>
</linearGradient>
<linearGradient id="paint26_linear_182027_13739" x1="14.3316" y1="15.0804" x2="16.4022" y2="17.3079" gradientUnits="userSpaceOnUse">
<stop stop-color="#007E49" stop-opacity="0"/>
<stop offset="1" stop-color="#007E49"/>
</linearGradient>
<linearGradient id="paint27_linear_182027_13739" x1="17.6754" y1="2.51103" x2="18.946" y2="5.99338" gradientUnits="userSpaceOnUse">
<stop stop-color="#FEA95C"/>
<stop offset="1" stop-color="#F46700"/>
</linearGradient>
</defs>
</svg>
