<svg width="25" height="24" viewBox="0 0 25 24" fill="none" xmlns="http://www.w3.org/2000/svg">
<path d="M21.834 15.5C22.114 15.5 22.334 15.72 22.334 16V17C22.334 18.66 20.994 20 19.334 20C19.334 18.35 17.984 17 16.334 17C14.684 17 13.334 18.35 13.334 20H11.334C11.334 18.35 9.98398 17 8.33398 17C6.68398 17 5.33398 18.35 5.33398 20C3.67398 20 2.33398 18.66 2.33398 17V15C2.33398 14.45 2.78398 14 3.33398 14H12.834C14.214 14 15.334 12.88 15.334 11.5V6C15.334 5.45 15.784 5 16.334 5H17.174C17.894 5 18.554 5.39 18.914 6.01L19.554 7.13C19.644 7.29 19.524 7.5 19.334 7.5C17.954 7.5 16.834 8.62 16.834 10V13C16.834 14.38 17.954 15.5 19.334 15.5H21.834Z" fill="white"/>
<path d="M8.33398 22C9.43855 22 10.334 21.1046 10.334 20C10.334 18.8954 9.43855 18 8.33398 18C7.22941 18 6.33398 18.8954 6.33398 20C6.33398 21.1046 7.22941 22 8.33398 22Z" fill="white"/>
<path d="M16.334 22C17.4386 22 18.334 21.1046 18.334 20C18.334 18.8954 17.4386 18 16.334 18C15.2294 18 14.334 18.8954 14.334 20C14.334 21.1046 15.2294 22 16.334 22Z" fill="white"/>
<path d="M22.334 12.53V14H19.334C18.784 14 18.334 13.55 18.334 13V10C18.334 9.45 18.784 9 19.334 9H20.624L22.074 11.54C22.244 11.84 22.334 12.18 22.334 12.53Z" fill="white"/>
<path d="M13.414 2H6.02398C4.23398 2 2.73398 3.28 2.40398 4.98H6.77398C7.15398 4.98 7.45398 5.29 7.45398 5.67C7.45398 6.05 7.15398 6.35 6.77398 6.35H2.33398V7.73H4.93398C5.31398 7.73 5.62398 8.04 5.62398 8.42C5.62398 8.8 5.31398 9.1 4.93398 9.1H2.33398V10.48H3.10398C3.48398 10.48 3.79398 10.79 3.79398 11.17C3.79398 11.55 3.48398 11.85 3.10398 11.85H2.33398V12.08C2.33398 12.63 2.78398 13.08 3.33398 13.08H12.484C13.504 13.08 14.334 12.25 14.334 11.23V2.92C14.334 2.41 13.924 2 13.414 2Z" fill="white"/>
<path d="M2.40398 4.98H2.25398H1.27398C0.893984 4.98 0.583984 5.29 0.583984 5.67C0.583984 6.05 0.893984 6.35 1.27398 6.35H2.18398H2.33398V5.69C2.33398 5.45 2.36398 5.21 2.40398 4.98Z" fill="white"/>
<path d="M2.18398 7.73H1.27398C0.893984 7.73 0.583984 8.04 0.583984 8.42C0.583984 8.8 0.893984 9.1 1.27398 9.1H2.18398H2.33398V7.73H2.18398Z" fill="white"/>
<path d="M2.18398 10.48H1.27398C0.893984 10.48 0.583984 10.79 0.583984 11.17C0.583984 11.55 0.893984 11.85 1.27398 11.85H2.18398H2.33398V10.48H2.18398Z" fill="white"/>
</svg>
