<svg width="26" height="30" viewBox="0 0 26 30" fill="none" xmlns="http://www.w3.org/2000/svg">
<path d="M1.18895 0.313463C1.18146 0.315959 1.17647 0.330935 1.16898 0.333431C1.15151 0.335927 1.12655 0.328439 1.10908 0.333431C0.974295 0.348407 0.849496 0.403318 0.749657 0.493174C0.320347 0.727797 0.0507812 1.20952 0.0507812 1.73118V28.4282C0.0507812 28.8251 0.2255 29.2419 0.549978 29.4865C0.699737 29.6537 0.926872 29.7286 1.14901 29.6862C1.44104 29.7012 1.74805 29.6363 2.00763 29.4865C2.54926 29.172 13.609 22.7773 13.609 22.7773L19.3797 19.4427C19.3922 19.4377 19.4071 19.4302 19.4196 19.4227L19.4995 19.3828C19.4995 19.3828 19.5769 19.3428 19.5794 19.3428C19.5868 19.3354 19.5918 19.3304 19.5993 19.3229C19.7715 19.223 24.4989 16.5024 25.1504 16.128C25.5997 15.8684 25.9566 15.4466 25.9491 14.9299C25.9416 14.4133 25.5772 14.0114 25.1704 13.7918C24.9457 13.672 23.4881 12.8383 22.1352 12.0546C20.7824 11.2708 19.4995 10.517 19.4995 10.517L13.609 7.12251C13.609 7.12251 2.8987 0.937459 2.26721 0.573045C2.04507 0.44575 1.79298 0.343415 1.54837 0.313463C1.42607 0.298487 1.30876 0.293495 1.18895 0.313463ZM1.32872 2.0307L14.3478 14.9499L1.32872 27.8691V2.0307ZM4.36384 3.24874C7.61361 5.12572 12.97 8.22074 12.97 8.22074L18.1217 11.196L15.2463 14.0514L4.36384 3.24874ZM19.2599 11.8549C19.5669 12.0346 20.3481 12.4889 21.4963 13.1528C22.8491 13.9365 24.2369 14.7303 24.5713 14.91C24.6038 14.9274 24.5938 14.9374 24.6113 14.9499C24.5863 14.9674 24.5788 14.9724 24.5114 15.0098C23.8974 15.3642 19.9163 17.6755 19.2798 18.0449L16.1449 14.9499L19.2599 11.8549ZM15.2463 15.8285L18.1417 18.7039L12.97 21.6791C12.97 21.6791 7.75339 24.6892 4.38381 26.6311L15.2463 15.8285Z" fill="white" fill-opacity="0.7"/>
</svg>
